<?xml version="1.0" encoding="UTF-8"?>
<svg version="1.1" xmlns="http://www.w3.org/2000/svg" width="400" height="566">
<path d="M0 0 C1.31789688 -0.00233999 1.31789688 -0.00233999 2.66241795 -0.00472724 C5.58234091 -0.00868971 8.50221112 -0.00556612 11.4221344 -0.00241089 C13.52543671 -0.00376705 15.62873878 -0.00554819 17.73204041 -0.00772095 C23.42828416 -0.01226999 29.12450975 -0.01051604 34.82075381 -0.00734186 C40.79115773 -0.00480487 46.76156013 -0.00715956 52.73196411 -0.00872803 C62.7580849 -0.01054595 72.78419832 -0.00815345 82.81031799 -0.00338745 C94.38861572 0.00205295 105.96689583 0.00029259 117.54519314 -0.00521386 C127.49874091 -0.00975749 137.4522834 -0.01038936 147.40583187 -0.00777519 C153.34503503 -0.00621911 159.28422992 -0.00600027 165.22343254 -0.00931168 C170.80897086 -0.0122085 176.39448655 -0.01018145 181.98002243 -0.00441742 C184.02538961 -0.00309947 186.0707587 -0.00346749 188.11612511 -0.00568008 C190.91696034 -0.00842967 193.71772396 -0.00496419 196.51855469 0 C197.72048427 -0.00334608 197.72048427 -0.00334608 198.94669527 -0.00675976 C204.61993469 0.01262261 210.18811454 0.47796896 215.82276917 1.12698364 C215.82276917 1.78698364 215.82276917 2.44698364 215.82276917 3.12698364 C217.80276917 3.12698364 219.78276917 3.12698364 221.82276917 3.12698364 C221.82276917 3.78698364 221.82276917 4.44698364 221.82276917 5.12698364 C223.80276917 5.12698364 225.78276917 5.12698364 227.82276917 5.12698364 C227.82276917 5.78698364 227.82276917 6.44698364 227.82276917 7.12698364 C229.47276917 7.12698364 231.12276917 7.12698364 232.82276917 7.12698364 C232.82276917 7.78698364 232.82276917 8.44698364 232.82276917 9.12698364 C234.14276917 9.12698364 235.46276917 9.12698364 236.82276917 9.12698364 C236.82276917 9.78698364 236.82276917 10.44698364 236.82276917 11.12698364 C238.14276917 11.12698364 239.46276917 11.12698364 240.82276917 11.12698364 C240.82276917 11.78698364 240.82276917 12.44698364 240.82276917 13.12698364 C241.81276917 13.12698364 242.80276917 13.12698364 243.82276917 13.12698364 C243.82276917 13.78698364 243.82276917 14.44698364 243.82276917 15.12698364 C244.39511292 15.24171021 244.96745667 15.35643677 245.55714417 15.47463989 C248.03748572 16.1888072 249.88645614 17.20006236 252.07276917 18.56448364 C253.13237854 19.21223755 253.13237854 19.21223755 254.21339417 19.87307739 C254.74448792 20.28686646 255.27558167 20.70065552 255.82276917 21.12698364 C255.82276917 21.78698364 255.82276917 22.44698364 255.82276917 23.12698364 C257.47276917 23.78698364 259.12276917 24.44698364 260.82276917 25.12698364 C260.82276917 25.78698364 260.82276917 26.44698364 260.82276917 27.12698364 C261.40542542 27.38479614 261.98808167 27.64260864 262.58839417 27.90823364 C265.00305947 29.22532381 266.64017094 30.67786748 268.57276917 32.62698364 C269.18636292 33.23542114 269.79995667 33.84385864 270.43214417 34.47073364 C271.82276917 36.12698364 271.82276917 36.12698364 271.82276917 38.12698364 C272.48276917 38.12698364 273.14276917 38.12698364 273.82276917 38.12698364 C274.48276917 39.77698364 275.14276917 41.42698364 275.82276917 43.12698364 C276.48276917 43.12698364 277.14276917 43.12698364 277.82276917 43.12698364 C278.48276917 44.77698364 279.14276917 46.42698364 279.82276917 48.12698364 C280.48276917 48.12698364 281.14276917 48.12698364 281.82276917 48.12698364 C281.82276917 49.11698364 281.82276917 50.10698364 281.82276917 51.12698364 C282.48276917 51.12698364 283.14276917 51.12698364 283.82276917 51.12698364 C283.82276917 52.44698364 283.82276917 53.76698364 283.82276917 55.12698364 C284.48276917 55.12698364 285.14276917 55.12698364 285.82276917 55.12698364 C285.82276917 56.11698364 285.82276917 57.10698364 285.82276917 58.12698364 C286.48276917 58.12698364 287.14276917 58.12698364 287.82276917 58.12698364 C287.82276917 59.44698364 287.82276917 60.76698364 287.82276917 62.12698364 C288.48276917 62.12698364 289.14276917 62.12698364 289.82276917 62.12698364 C289.82276917 63.44698364 289.82276917 64.76698364 289.82276917 66.12698364 C290.48276917 66.12698364 291.14276917 66.12698364 291.82276917 66.12698364 C291.82276917 67.77698364 291.82276917 69.42698364 291.82276917 71.12698364 C292.48276917 71.12698364 293.14276917 71.12698364 293.82276917 71.12698364 C293.82276917 73.10698364 293.82276917 75.08698364 293.82276917 77.12698364 C294.48276917 77.12698364 295.14276917 77.12698364 295.82276917 77.12698364 C295.82276917 79.10698364 295.82276917 81.08698364 295.82276917 83.12698364 C296.48276917 83.12698364 297.14276917 83.12698364 297.82276917 83.12698364 C298.58736993 89.22811884 298.96681166 95.15952879 298.94975281 101.30421448 C298.9513128 102.1828124 298.95287279 103.06141032 298.95448005 103.96663243 C298.95844252 106.88655539 298.95531893 109.8064256 298.9521637 112.72634888 C298.95351986 114.82965119 298.955301 116.93295326 298.95747375 119.03625488 C298.9620228 124.73249864 298.96026885 130.42872423 298.95709467 136.12496829 C298.95455767 142.09537221 298.95691237 148.06577461 298.95848083 154.03617859 C298.96029875 164.06229938 298.95790625 174.0884128 298.95314026 184.11453247 C298.94769985 195.6928302 298.94946021 207.27111031 298.95496666 218.84940761 C298.9595103 228.80295539 298.96014217 238.75649787 298.957528 248.71004635 C298.95597192 254.64924951 298.95575307 260.5884444 298.95906448 266.52764702 C298.9619613 272.11318533 298.95993425 277.69870103 298.95417023 283.28423691 C298.95285227 285.32960409 298.9532203 287.37497318 298.95543289 289.42033958 C298.95818248 292.22117482 298.954717 295.02193844 298.94975281 297.82276917 C298.95198353 298.62405556 298.95421425 299.42534195 298.95651257 300.25090975 C298.9371302 305.92414917 298.47178385 311.49232902 297.82276917 317.12698364 C297.16276917 317.12698364 296.50276917 317.12698364 295.82276917 317.12698364 C295.82276917 319.10698364 295.82276917 321.08698364 295.82276917 323.12698364 C295.16276917 323.12698364 294.50276917 323.12698364 293.82276917 323.12698364 C293.82276917 325.10698364 293.82276917 327.08698364 293.82276917 329.12698364 C293.16276917 329.12698364 292.50276917 329.12698364 291.82276917 329.12698364 C291.82276917 330.77698364 291.82276917 332.42698364 291.82276917 334.12698364 C291.16276917 334.12698364 290.50276917 334.12698364 289.82276917 334.12698364 C289.82276917 335.44698364 289.82276917 336.76698364 289.82276917 338.12698364 C289.16276917 338.12698364 288.50276917 338.12698364 287.82276917 338.12698364 C287.82276917 339.44698364 287.82276917 340.76698364 287.82276917 342.12698364 C287.16276917 342.12698364 286.50276917 342.12698364 285.82276917 342.12698364 C285.82276917 343.11698364 285.82276917 344.10698364 285.82276917 345.12698364 C285.16276917 345.12698364 284.50276917 345.12698364 283.82276917 345.12698364 C283.82276917 346.44698364 283.82276917 347.76698364 283.82276917 349.12698364 C283.16276917 349.12698364 282.50276917 349.12698364 281.82276917 349.12698364 C281.53401917 349.89010864 281.24526917 350.65323364 280.94776917 351.43948364 C279.82276917 354.12698364 279.82276917 354.12698364 277.82276917 357.12698364 C277.16276917 357.12698364 276.50276917 357.12698364 275.82276917 357.12698364 C275.16276917 358.77698364 274.50276917 360.42698364 273.82276917 362.12698364 C273.16276917 362.12698364 272.50276917 362.12698364 271.82276917 362.12698364 C271.56495667 362.70963989 271.30714417 363.29229614 271.04151917 363.89260864 C269.724429 366.30727395 268.27188532 367.94438542 266.32276917 369.87698364 C265.71433167 370.49057739 265.10589417 371.10417114 264.47901917 371.73635864 C262.82276917 373.12698364 262.82276917 373.12698364 260.82276917 373.12698364 C260.82276917 373.78698364 260.82276917 374.44698364 260.82276917 375.12698364 C259.17276917 375.78698364 257.52276917 376.44698364 255.82276917 377.12698364 C255.82276917 377.78698364 255.82276917 378.44698364 255.82276917 379.12698364 C254.17276917 379.78698364 252.52276917 380.44698364 250.82276917 381.12698364 C250.82276917 381.78698364 250.82276917 382.44698364 250.82276917 383.12698364 C249.83276917 383.12698364 248.84276917 383.12698364 247.82276917 383.12698364 C247.82276917 383.78698364 247.82276917 384.44698364 247.82276917 385.12698364 C246.50276917 385.12698364 245.18276917 385.12698364 243.82276917 385.12698364 C243.82276917 385.78698364 243.82276917 386.44698364 243.82276917 387.12698364 C242.83276917 387.12698364 241.84276917 387.12698364 240.82276917 387.12698364 C240.82276917 387.78698364 240.82276917 388.44698364 240.82276917 389.12698364 C239.50276917 389.12698364 238.18276917 389.12698364 236.82276917 389.12698364 C236.82276917 389.78698364 236.82276917 390.44698364 236.82276917 391.12698364 C235.50276917 391.12698364 234.18276917 391.12698364 232.82276917 391.12698364 C232.82276917 391.78698364 232.82276917 392.44698364 232.82276917 393.12698364 C231.17276917 393.12698364 229.52276917 393.12698364 227.82276917 393.12698364 C227.82276917 393.78698364 227.82276917 394.44698364 227.82276917 395.12698364 C225.84276917 395.12698364 223.86276917 395.12698364 221.82276917 395.12698364 C221.82276917 395.78698364 221.82276917 396.44698364 221.82276917 397.12698364 C219.84276917 397.12698364 217.86276917 397.12698364 215.82276917 397.12698364 C215.82276917 397.78698364 215.82276917 398.44698364 215.82276917 399.12698364 C209.72163397 399.89158441 203.79022402 400.27102614 197.64553833 400.25396729 C196.76694041 400.25552728 195.88834248 400.25708727 194.98312038 400.25869453 C192.06319742 400.262657 189.14332721 400.25953341 186.22340393 400.25637817 C184.12010162 400.25773433 182.01679955 400.25951548 179.91349792 400.26168823 C174.21725417 400.26623728 168.52102858 400.26448333 162.82478452 400.26130915 C156.8543806 400.25877215 150.8839782 400.26112685 144.91357422 400.26269531 C134.88745343 400.26451323 124.86134001 400.26212073 114.83522034 400.25735474 C103.25692261 400.25191433 91.6786425 400.25367469 80.10034519 400.25918114 C70.14679742 400.26372478 60.19325493 400.26435665 50.23970646 400.26174247 C44.3005033 400.2601864 38.36130841 400.25996755 32.42210579 400.26327896 C26.83656747 400.26617578 21.25105178 400.26414873 15.6655159 400.2583847 C13.62014872 400.25706675 11.57477963 400.25743478 9.52941322 400.25964737 C6.72857799 400.26239695 3.92781437 400.25893147 1.12698364 400.25396729 C-0.07494594 400.25731337 -0.07494594 400.25731337 -1.30115694 400.26072705 C-6.97439636 400.24134468 -12.54257621 399.77599833 -18.17723083 399.12698364 C-18.17723083 398.46698364 -18.17723083 397.80698364 -18.17723083 397.12698364 C-20.15723083 397.12698364 -22.13723083 397.12698364 -24.17723083 397.12698364 C-24.17723083 396.46698364 -24.17723083 395.80698364 -24.17723083 395.12698364 C-26.15723083 395.12698364 -28.13723083 395.12698364 -30.17723083 395.12698364 C-30.17723083 394.46698364 -30.17723083 393.80698364 -30.17723083 393.12698364 C-31.82723083 393.12698364 -33.47723083 393.12698364 -35.17723083 393.12698364 C-35.17723083 392.46698364 -35.17723083 391.80698364 -35.17723083 391.12698364 C-36.49723083 391.12698364 -37.81723083 391.12698364 -39.17723083 391.12698364 C-39.17723083 390.46698364 -39.17723083 389.80698364 -39.17723083 389.12698364 C-40.49723083 389.12698364 -41.81723083 389.12698364 -43.17723083 389.12698364 C-43.17723083 388.46698364 -43.17723083 387.80698364 -43.17723083 387.12698364 C-44.16723083 387.12698364 -45.15723083 387.12698364 -46.17723083 387.12698364 C-46.17723083 386.46698364 -46.17723083 385.80698364 -46.17723083 385.12698364 C-47.49723083 385.12698364 -48.81723083 385.12698364 -50.17723083 385.12698364 C-50.17723083 384.46698364 -50.17723083 383.80698364 -50.17723083 383.12698364 C-50.94035583 382.83823364 -51.70348083 382.54948364 -52.48973083 382.25198364 C-55.17723083 381.12698364 -55.17723083 381.12698364 -58.17723083 379.12698364 C-58.17723083 378.46698364 -58.17723083 377.80698364 -58.17723083 377.12698364 C-59.82723083 376.46698364 -61.47723083 375.80698364 -63.17723083 375.12698364 C-63.17723083 374.46698364 -63.17723083 373.80698364 -63.17723083 373.12698364 C-63.75988708 372.86917114 -64.34254333 372.61135864 -64.94285583 372.34573364 C-67.35752114 371.02864348 -68.99463261 369.5760998 -70.92723083 367.62698364 C-71.54082458 367.01854614 -72.15441833 366.41010864 -72.78660583 365.78323364 C-74.17723083 364.12698364 -74.17723083 364.12698364 -74.17723083 362.12698364 C-74.83723083 362.12698364 -75.49723083 362.12698364 -76.17723083 362.12698364 C-76.83723083 360.47698364 -77.49723083 358.82698364 -78.17723083 357.12698364 C-78.83723083 357.12698364 -79.49723083 357.12698364 -80.17723083 357.12698364 C-80.83723083 355.47698364 -81.49723083 353.82698364 -82.17723083 352.12698364 C-82.83723083 352.12698364 -83.49723083 352.12698364 -84.17723083 352.12698364 C-84.17723083 351.13698364 -84.17723083 350.14698364 -84.17723083 349.12698364 C-84.83723083 349.12698364 -85.49723083 349.12698364 -86.17723083 349.12698364 C-86.17723083 347.80698364 -86.17723083 346.48698364 -86.17723083 345.12698364 C-86.83723083 345.12698364 -87.49723083 345.12698364 -88.17723083 345.12698364 C-88.17723083 344.13698364 -88.17723083 343.14698364 -88.17723083 342.12698364 C-88.83723083 342.12698364 -89.49723083 342.12698364 -90.17723083 342.12698364 C-90.17723083 340.80698364 -90.17723083 339.48698364 -90.17723083 338.12698364 C-90.83723083 338.12698364 -91.49723083 338.12698364 -92.17723083 338.12698364 C-92.17723083 336.80698364 -92.17723083 335.48698364 -92.17723083 334.12698364 C-92.83723083 334.12698364 -93.49723083 334.12698364 -94.17723083 334.12698364 C-94.17723083 332.47698364 -94.17723083 330.82698364 -94.17723083 329.12698364 C-94.83723083 329.12698364 -95.49723083 329.12698364 -96.17723083 329.12698364 C-96.17723083 327.14698364 -96.17723083 325.16698364 -96.17723083 323.12698364 C-96.83723083 323.12698364 -97.49723083 323.12698364 -98.17723083 323.12698364 C-98.17723083 321.14698364 -98.17723083 319.16698364 -98.17723083 317.12698364 C-98.83723083 317.12698364 -99.49723083 317.12698364 -100.17723083 317.12698364 C-100.9418316 311.02584844 -101.32127333 305.0944385 -101.30421448 298.94975281 C-101.30577447 298.07115488 -101.30733446 297.19255696 -101.30894172 296.28733486 C-101.31290419 293.3674119 -101.3097806 290.44754168 -101.30662537 287.52761841 C-101.30798153 285.4243161 -101.30976267 283.32101403 -101.31193542 281.2177124 C-101.31648447 275.52146865 -101.31473052 269.82524306 -101.31155634 264.12899899 C-101.30901934 258.15859507 -101.31137404 252.18819268 -101.3129425 246.2177887 C-101.31476042 236.1916679 -101.31236792 226.16555449 -101.30760193 216.13943481 C-101.30216152 204.56113709 -101.30392188 192.98285697 -101.30942833 181.40455967 C-101.31397197 171.4510119 -101.31460384 161.49746941 -101.31198967 151.54392093 C-101.31043359 145.60471778 -101.31021474 139.66552289 -101.31352615 133.72632027 C-101.31642297 128.14078195 -101.31439592 122.55526626 -101.3086319 116.96973038 C-101.30731394 114.9243632 -101.30768197 112.87899411 -101.30989456 110.8336277 C-101.31264415 108.03279247 -101.30917867 105.23202884 -101.30421448 102.43119812 C-101.3064452 101.62991173 -101.30867592 100.82862534 -101.31097424 100.00305754 C-101.29159187 94.32981811 -100.82624552 88.76163827 -100.17723083 83.12698364 C-99.51723083 83.12698364 -98.85723083 83.12698364 -98.17723083 83.12698364 C-98.17723083 81.14698364 -98.17723083 79.16698364 -98.17723083 77.12698364 C-97.51723083 77.12698364 -96.85723083 77.12698364 -96.17723083 77.12698364 C-96.17723083 75.14698364 -96.17723083 73.16698364 -96.17723083 71.12698364 C-95.51723083 71.12698364 -94.85723083 71.12698364 -94.17723083 71.12698364 C-94.17723083 69.47698364 -94.17723083 67.82698364 -94.17723083 66.12698364 C-93.51723083 66.12698364 -92.85723083 66.12698364 -92.17723083 66.12698364 C-92.17723083 64.80698364 -92.17723083 63.48698364 -92.17723083 62.12698364 C-91.51723083 62.12698364 -90.85723083 62.12698364 -90.17723083 62.12698364 C-90.17723083 60.80698364 -90.17723083 59.48698364 -90.17723083 58.12698364 C-89.51723083 58.12698364 -88.85723083 58.12698364 -88.17723083 58.12698364 C-88.17723083 57.13698364 -88.17723083 56.14698364 -88.17723083 55.12698364 C-87.51723083 55.12698364 -86.85723083 55.12698364 -86.17723083 55.12698364 C-86.17723083 53.80698364 -86.17723083 52.48698364 -86.17723083 51.12698364 C-85.51723083 51.12698364 -84.85723083 51.12698364 -84.17723083 51.12698364 C-83.88848083 50.36385864 -83.59973083 49.60073364 -83.30223083 48.81448364 C-82.17723083 46.12698364 -82.17723083 46.12698364 -80.17723083 43.12698364 C-79.51723083 43.12698364 -78.85723083 43.12698364 -78.17723083 43.12698364 C-77.51723083 41.47698364 -76.85723083 39.82698364 -76.17723083 38.12698364 C-75.51723083 38.12698364 -74.85723083 38.12698364 -74.17723083 38.12698364 C-73.79051208 37.25299927 -73.79051208 37.25299927 -73.39598083 36.36135864 C-72.07889067 33.94669334 -70.62634699 32.30958187 -68.67723083 30.37698364 C-67.76457458 29.45659302 -67.76457458 29.45659302 -66.83348083 28.51760864 C-65.17723083 27.12698364 -65.17723083 27.12698364 -63.17723083 27.12698364 C-63.17723083 26.46698364 -63.17723083 25.80698364 -63.17723083 25.12698364 C-61.52723083 24.46698364 -59.87723083 23.80698364 -58.17723083 23.12698364 C-58.17723083 22.46698364 -58.17723083 21.80698364 -58.17723083 21.12698364 C-56.52723083 20.46698364 -54.87723083 19.80698364 -53.17723083 19.12698364 C-53.17723083 18.46698364 -53.17723083 17.80698364 -53.17723083 17.12698364 C-50.52984167 15.66635514 -49.28274749 15.12698364 -46.17723083 15.12698364 C-46.17723083 14.46698364 -46.17723083 13.80698364 -46.17723083 13.12698364 C-45.18723083 13.12698364 -44.19723083 13.12698364 -43.17723083 13.12698364 C-43.17723083 12.46698364 -43.17723083 11.80698364 -43.17723083 11.12698364 C-41.85723083 11.12698364 -40.53723083 11.12698364 -39.17723083 11.12698364 C-39.17723083 10.46698364 -39.17723083 9.80698364 -39.17723083 9.12698364 C-37.85723083 9.12698364 -36.53723083 9.12698364 -35.17723083 9.12698364 C-35.17723083 8.46698364 -35.17723083 7.80698364 -35.17723083 7.12698364 C-33.52723083 7.12698364 -31.87723083 7.12698364 -30.17723083 7.12698364 C-30.17723083 6.46698364 -30.17723083 5.80698364 -30.17723083 5.12698364 C-28.19723083 5.12698364 -26.21723083 5.12698364 -24.17723083 5.12698364 C-24.17723083 4.46698364 -24.17723083 3.80698364 -24.17723083 3.12698364 C-22.19723083 3.12698364 -20.21723083 3.12698364 -18.17723083 3.12698364 C-18.17723083 2.46698364 -18.17723083 1.80698364 -18.17723083 1.12698364 C-12.07609564 0.36238288 -6.14468569 -0.01705886 0 0 Z " fill="#6360EC" transform="translate(101.17723083496094,-0.126983642578125)"/>
<path d="M0 0 C132 0 264 0 400 0 C400 44.88 400 89.76 400 136 C268 136 136 136 0 136 C0 91.12 0 46.24 0 0 Z " fill="#4B71EA" transform="translate(0,430)"/>
<path d="M0 0 C1.25908676 0.00222061 2.51817352 0.00444122 3.81541443 0.00672913 C4.50806396 0.0065831 5.2007135 0.00643707 5.91435242 0.00628662 C8.21400537 0.00698577 10.51357828 0.01477823 12.81321716 0.02259827 C14.40362504 0.02446244 15.99403349 0.02588635 17.58444214 0.02688599 C21.77827021 0.03071123 25.97206386 0.04054156 30.1658783 0.05158997 C34.44220006 0.06180395 38.71852736 0.06638358 42.99485779 0.07142639 C51.39135799 0.08216383 59.78783017 0.09924032 68.18431091 0.12025452 C68.20769521 22.24317608 68.22531725 44.3660956 68.23612309 66.48902702 C68.24127429 76.76161488 68.24829458 87.03419504 68.25975037 97.30677795 C68.26973313 106.26276343 68.27617289 115.21874334 68.27839941 124.17473423 C68.27970041 128.91464689 68.2827476 133.65454361 68.29004097 138.39445114 C68.29685789 142.86115028 68.29891637 147.32782702 68.29741859 151.79453087 C68.29769238 153.42868993 68.29966371 155.06284978 68.30351639 156.69700432 C68.32189663 164.89957356 68.20246745 172.96523138 67.18431091 181.12025452 C66.52431091 181.12025452 65.86431091 181.12025452 65.18431091 181.12025452 C65.18431091 183.10025452 65.18431091 185.08025452 65.18431091 187.12025452 C64.52431091 187.12025452 63.86431091 187.12025452 63.18431091 187.12025452 C63.18431091 189.10025452 63.18431091 191.08025452 63.18431091 193.12025452 C62.52431091 193.12025452 61.86431091 193.12025452 61.18431091 193.12025452 C61.18431091 194.77025452 61.18431091 196.42025452 61.18431091 198.12025452 C60.52431091 198.12025452 59.86431091 198.12025452 59.18431091 198.12025452 C59.18431091 199.44025452 59.18431091 200.76025452 59.18431091 202.12025452 C58.52431091 202.12025452 57.86431091 202.12025452 57.18431091 202.12025452 C57.18431091 203.44025452 57.18431091 204.76025452 57.18431091 206.12025452 C56.52431091 206.12025452 55.86431091 206.12025452 55.18431091 206.12025452 C55.18431091 207.11025452 55.18431091 208.10025452 55.18431091 209.12025452 C54.52431091 209.12025452 53.86431091 209.12025452 53.18431091 209.12025452 C53.18431091 210.44025452 53.18431091 211.76025452 53.18431091 213.12025452 C52.52431091 213.12025452 51.86431091 213.12025452 51.18431091 213.12025452 C50.89556091 213.88337952 50.60681091 214.64650452 50.30931091 215.43275452 C49.18431091 218.12025452 49.18431091 218.12025452 47.18431091 221.12025452 C46.52431091 221.12025452 45.86431091 221.12025452 45.18431091 221.12025452 C44.52431091 222.77025452 43.86431091 224.42025452 43.18431091 226.12025452 C42.52431091 226.12025452 41.86431091 226.12025452 41.18431091 226.12025452 C40.92649841 226.70291077 40.66868591 227.28556702 40.40306091 227.88587952 C39.08597075 230.30054482 37.63342707 231.93765629 35.68431091 233.87025452 C35.07587341 234.48384827 34.46743591 235.09744202 33.84056091 235.72962952 C32.18431091 237.12025452 32.18431091 237.12025452 30.18431091 237.12025452 C30.18431091 237.78025452 30.18431091 238.44025452 30.18431091 239.12025452 C28.53431091 239.78025452 26.88431091 240.44025452 25.18431091 241.12025452 C25.18431091 241.78025452 25.18431091 242.44025452 25.18431091 243.12025452 C22.70931091 244.11025452 22.70931091 244.11025452 20.18431091 245.12025452 C20.18431091 245.78025452 20.18431091 246.44025452 20.18431091 247.12025452 C19.19431091 247.12025452 18.20431091 247.12025452 17.18431091 247.12025452 C17.18431091 247.78025452 17.18431091 248.44025452 17.18431091 249.12025452 C15.86431091 249.12025452 14.54431091 249.12025452 13.18431091 249.12025452 C13.18431091 249.78025452 13.18431091 250.44025452 13.18431091 251.12025452 C12.19431091 251.12025452 11.20431091 251.12025452 10.18431091 251.12025452 C10.18431091 251.78025452 10.18431091 252.44025452 10.18431091 253.12025452 C8.86431091 253.12025452 7.54431091 253.12025452 6.18431091 253.12025452 C6.18431091 253.78025452 6.18431091 254.44025452 6.18431091 255.12025452 C4.86431091 255.12025452 3.54431091 255.12025452 2.18431091 255.12025452 C2.18431091 255.78025452 2.18431091 256.44025452 2.18431091 257.12025452 C0.53431091 257.12025452 -1.11568909 257.12025452 -2.81568909 257.12025452 C-2.81568909 257.78025452 -2.81568909 258.44025452 -2.81568909 259.12025452 C-4.79568909 259.12025452 -6.77568909 259.12025452 -8.81568909 259.12025452 C-8.81568909 259.78025452 -8.81568909 260.44025452 -8.81568909 261.12025452 C-10.79568909 261.12025452 -12.77568909 261.12025452 -14.81568909 261.12025452 C-14.81568909 261.78025452 -14.81568909 262.44025452 -14.81568909 263.12025452 C-20.63597776 263.95172433 -26.2922155 264.18578492 -32.15943909 264.15150452 C-32.89774963 264.14924866 -33.63606018 264.1469928 -34.39674377 264.14466858 C-36.20306775 264.13882287 -38.00938117 264.12985686 -39.81568909 264.12025452 C-39.88510278 254.24567187 -39.93845629 244.37114696 -39.9711256 234.49637032 C-39.98680275 229.91143827 -40.00807815 225.32667274 -40.04200745 220.74183655 C-40.07452819 216.31982149 -40.09252665 211.89796691 -40.10032082 207.47584152 C-40.10587748 205.78607022 -40.11672787 204.09630801 -40.13287926 202.40660477 C-40.15455722 200.04549713 -40.15766014 197.68505842 -40.15626526 195.3238678 C-40.16705109 194.62040222 -40.17783691 193.91693665 -40.18894958 193.19215393 C-40.17645264 191.24601746 -40.17645264 191.24601746 -39.81568909 188.12025452 C-36.81568909 186.12025452 -36.81568909 186.12025452 -32.81568909 186.12025452 C-32.81568909 185.46025452 -32.81568909 184.80025452 -32.81568909 184.12025452 C-31.49568909 184.12025452 -30.17568909 184.12025452 -28.81568909 184.12025452 C-28.81568909 183.46025452 -28.81568909 182.80025452 -28.81568909 182.12025452 C-27.13600159 180.83119202 -27.13600159 180.83119202 -24.94068909 179.49525452 C-24.22139221 179.04923889 -23.50209534 178.60322327 -22.76100159 178.14369202 C-20.81568909 177.12025452 -20.81568909 177.12025452 -18.81568909 177.12025452 C-18.81568909 176.46025452 -18.81568909 175.80025452 -18.81568909 175.12025452 C-18.15568909 175.12025452 -17.49568909 175.12025452 -16.81568909 175.12025452 C-16.56818909 174.50150452 -16.32068909 173.88275452 -16.06568909 173.24525452 C-14.81568909 171.12025452 -14.81568909 171.12025452 -12.81568909 170.24525452 C-9.81482017 168.55726575 -9.77858997 166.37004501 -8.81568909 163.12025452 C-7.86538033 161.13252536 -6.85241123 159.18910853 -5.81568909 157.24525452 C-3.09038483 151.45398297 -2.5026119 146.5424604 -2.56568909 140.24525452 C-2.55795471 139.48084045 -2.55022034 138.71642639 -2.54225159 137.92884827 C-2.56011354 132.66850262 -3.37644655 128.17908464 -4.81568909 123.12025452 C-5.1534819 121.78804398 -5.48799004 120.45498379 -5.81568909 119.12025452 C-6.47568909 119.12025452 -7.13568909 119.12025452 -7.81568909 119.12025452 C-8.08381409 118.15087952 -8.35193909 117.18150452 -8.62818909 116.18275452 C-9.02006409 115.17212952 -9.41193909 114.16150452 -9.81568909 113.12025452 C-11.30068909 112.62525452 -11.30068909 112.62525452 -12.81568909 112.12025452 C-13.14568909 111.13025452 -13.47568909 110.14025452 -13.81568909 109.12025452 C-15.30068909 108.13025452 -15.30068909 108.13025452 -16.81568909 107.12025452 C-16.81568909 106.13025452 -16.81568909 105.14025452 -16.81568909 104.12025452 C-17.39318909 104.01712952 -17.97068909 103.91400452 -18.56568909 103.80775452 C-21.17230066 103.01128987 -22.78922019 101.92960175 -24.81568909 100.12025452 C-24.81568909 99.46025452 -24.81568909 98.80025452 -24.81568909 98.12025452 C-25.62006409 97.85212952 -26.42443909 97.58400452 -27.25318909 97.30775452 C-31.44068909 95.91192118 -35.62818909 94.51608785 -39.81568909 93.12025452 C-39.88513004 85.72298204 -39.93847 78.32577957 -39.9711256 70.92824745 C-39.98679694 67.49343497 -40.00806123 64.05884511 -40.04200745 60.62416077 C-40.08076989 56.67757308 -40.09538621 52.73107624 -40.10865784 48.78431702 C-40.12414169 47.54783417 -40.13962555 46.31135132 -40.15557861 45.03739929 C-40.15580521 43.89636749 -40.1560318 42.75533569 -40.15626526 41.57972717 C-40.16292709 40.57156952 -40.16958893 39.56341187 -40.17645264 38.52470398 C-40.05740067 37.73123566 -39.93834869 36.93776733 -39.81568909 36.12025452 C-36.81568909 34.12025452 -36.81568909 34.12025452 -32.81568909 34.12025452 C-32.81568909 33.46025452 -32.81568909 32.80025452 -32.81568909 32.12025452 C-31.49568909 32.12025452 -30.17568909 32.12025452 -28.81568909 32.12025452 C-28.81568909 31.46025452 -28.81568909 30.80025452 -28.81568909 30.12025452 C-27.13600159 28.83119202 -27.13600159 28.83119202 -24.94068909 27.49525452 C-24.22139221 27.04923889 -23.50209534 26.60322327 -22.76100159 26.14369202 C-20.81568909 25.12025452 -20.81568909 25.12025452 -18.81568909 25.12025452 C-18.81568909 24.46025452 -18.81568909 23.80025452 -18.81568909 23.12025452 C-18.15568909 23.12025452 -17.49568909 23.12025452 -16.81568909 23.12025452 C-16.47537659 22.31587952 -16.47537659 22.31587952 -16.12818909 21.49525452 C-14.40103849 18.36993438 -12.09841193 15.85952193 -9.81568909 13.12025452 C-8.53716622 10.90438104 -8.53716622 10.90438104 -7.81568909 9.12025452 C-6.82568909 9.12025452 -5.83568909 9.12025452 -4.81568909 9.12025452 C-4.67131409 7.82087952 -4.52693909 6.52150452 -4.37818909 5.18275452 C-3.82045713 0.16316689 -3.82045713 0.16316689 0 0 Z " fill="#7157EC" transform="translate(331.81568908691406,135.87974548339844)"/>
<path d="M0 0 C0 0.66 0 1.32 0 2 C0.5775 2.28875 1.155 2.5775 1.75 2.875 C2.4925 3.24625 3.235 3.6175 4 4 C4.9590625 4.37125 4.9590625 4.37125 5.9375 4.75 C9.08673625 6.65862803 10.81672234 9.02831652 13 12 C13 12.99 13 13.98 13 15 C13.66 15 14.32 15 15 15 C15.99 17.97 15.99 17.97 17 21 C17.66 21 18.32 21 19 21 C19.495 23.475 19.495 23.475 20 26 C44.09 26 68.18 26 93 26 C93 35.24 93 44.48 93 54 C57.855 54.495 57.855 54.495 22 55 C21.34 57.64 20.68 60.28 20 63 C19.01 63 18.02 63 17 63 C16.7215625 64.2375 16.7215625 64.2375 16.4375 65.5 C14.53818279 70.12442451 11.65687488 73.60186626 8 77 C7.34 77 6.68 77 6 77 C6 77.66 6 78.32 6 79 C4.3203125 80.2890625 4.3203125 80.2890625 2.125 81.625 C1.40570313 82.07101563 0.68640625 82.51703125 -0.0546875 82.9765625 C-2 84 -2 84 -4 84 C-4 84.66 -4 85.32 -4 86 C-5.32 86 -6.64 86 -8 86 C-8 86.66 -8 87.32 -8 88 C-9.98 88.66 -11.96 89.32 -14 90 C-14 108.81 -14 127.62 -14 147 C-11.36 147.66 -8.72 148.32 -6 149 C-3.97186629 149.94163351 -1.95927833 150.92239692 0 152 C0 152.66 0 153.32 0 154 C0.5775 154.28875 1.155 154.5775 1.75 154.875 C2.4925 155.24625 3.235 155.6175 4 156 C4.721875 156.309375 5.44375 156.61875 6.1875 156.9375 C8 158 8 158 9 161 C10.485 161.99 10.485 161.99 12 163 C12.33 163.99 12.66 164.98 13 166 C13.495 166.474375 13.99 166.94875 14.5 167.4375 C16.24185971 169.25193719 16.57855013 170.55559077 17 173 C17.66 173 18.32 173 19 173 C24.25837591 182.60225166 24.91938695 195.99807641 22.0234375 206.5625 C20.81510583 209.46842648 19.47772264 212.22290056 18 215 C17.65453125 215.78117188 17.3090625 216.56234375 16.953125 217.3671875 C14.99263859 221.75417758 13.01155581 224.18106889 9 227 C8.67 227.66 8.34 228.32 8 229 C7.34 229 6.68 229 6 229 C6 229.66 6 230.32 6 231 C4.3203125 232.2890625 4.3203125 232.2890625 2.125 233.625 C1.40570313 234.07101562 0.68640625 234.51703125 -0.0546875 234.9765625 C-2 236 -2 236 -4 236 C-4 236.66 -4 237.32 -4 238 C-5.32 238 -6.64 238 -8 238 C-8 238.66 -8 239.32 -8 240 C-9.98 240.66 -11.96 241.32 -14 242 C-14.33 267.08 -14.66 292.16 -15 318 C-24.24 318 -33.48 318 -43 318 C-43.33 293.25 -43.66 268.5 -44 243 C-45.98 242.67 -47.96 242.34 -50 242 C-50 241.34 -50 240.68 -50 240 C-51.423125 239.7834375 -51.423125 239.7834375 -52.875 239.5625 C-56 239 -56 239 -58 238 C-58 237.34 -58 236.68 -58 236 C-59.98 235.34 -61.96 234.68 -64 234 C-64 233.34 -64 232.68 -64 232 C-64.556875 231.9175 -65.11375 231.835 -65.6875 231.75 C-73.55421741 229.19863219 -76.50231537 221.18524774 -80.125 214.4375 C-80.66447266 213.4484668 -80.66447266 213.4484668 -81.21484375 212.43945312 C-84.64147528 206.05462472 -85.18170204 201.34670773 -85.1875 194.25 C-85.19974609 193.4765625 -85.21199219 192.703125 -85.22460938 191.90625 C-85.24626258 183.30271178 -83.05049461 176.56092327 -79 169 C-78.34 169 -77.68 169 -77 169 C-76.94457031 168.46117187 -76.88914063 167.92234375 -76.83203125 167.3671875 C-75.61428512 163.90261401 -73.23999009 161.66556256 -70.6875 159.125 C-70.15350586 158.59342285 -69.61951172 158.0618457 -69.06933594 157.51416016 C-61.6629161 150.43966247 -53.88124071 147.47031018 -44 145 C-44 127.18 -44 109.36 -44 91 C-47.96 89.68 -51.92 88.36 -56 87 C-56.66 86.67 -57.32 86.34 -58 86 C-58 85.34 -58 84.68 -58 84 C-59.98 83.34 -61.96 82.68 -64 82 C-64 81.34 -64 80.68 -64 80 C-64.556875 79.9175 -65.11375 79.835 -65.6875 79.75 C-70.89145534 78.0622307 -73.39712427 74.56633534 -76 70 C-76.59039062 68.97003906 -77.18078125 67.94007813 -77.7890625 66.87890625 C-78.39492187 65.78449219 -79.00078125 64.69007813 -79.625 63.5625 C-80.23601562 62.47066406 -80.84703125 61.37882812 -81.4765625 60.25390625 C-84.2398765 54.35175095 -84.18216287 48.51887626 -84.1875 42.125 C-84.19974609 41.36058594 -84.21199219 40.59617188 -84.22460938 39.80859375 C-84.23800393 34.548998 -83.45677758 30.05553641 -82 25 C-81.34 25 -80.68 25 -80 25 C-80.020625 24.05125 -80.04125 23.1025 -80.0625 22.125 C-80 19 -80 19 -79 17 C-78.34 17 -77.68 17 -77 17 C-76.773125 16.2575 -76.54625 15.515 -76.3125 14.75 C-74.73336584 11.44133795 -72.8945294 10.20535574 -70 8 C-69.319375 7.113125 -68.63875 6.22625 -67.9375 5.3125 C-65.91291148 2.89605564 -65.06686972 2.32859318 -62 2 C-62 1.34 -62 0.68 -62 0 C-41.28866495 -11.15225734 -20.84038851 -10.86631878 0 0 Z " fill="#FDFDFE" transform="translate(307,82)"/>
<path d="M0 0 C0 0.66 0 1.32 0 2 C0.5775 2.28875 1.155 2.5775 1.75 2.875 C3.83333333 3.91666667 5.91666667 4.95833333 8 6 C8 6.66 8 7.32 8 8 C8.66 8 9.32 8 10 8 C10.433125 8.928125 10.86625 9.85625 11.3125 10.8125 C12.75416261 13.91345911 12.75416261 13.91345911 14.625 15.625 C16.3168346 17.3168346 16.59941561 18.67661054 17 21 C17.66 21 18.32 21 19 21 C19.48198463 22.24891614 19.96045677 23.49918808 20.4375 24.75 C20.70433594 25.44609375 20.97117188 26.1421875 21.24609375 26.859375 C24.56833067 36.29246222 24.60253394 48.38364557 20.75 57.625 C19.85997558 59.43004952 18.9453887 61.22332124 18 63 C17.65453125 63.78117187 17.3090625 64.56234375 16.953125 65.3671875 C14.99263859 69.75417758 13.01155581 72.18106889 9 75 C8.67 75.66 8.34 76.32 8 77 C7.34 77 6.68 77 6 77 C6 77.66 6 78.32 6 79 C4.3203125 80.2890625 4.3203125 80.2890625 2.125 81.625 C1.40570313 82.07101562 0.68640625 82.51703125 -0.0546875 82.9765625 C-2 84 -2 84 -4 84 C-4 84.66 -4 85.32 -4 86 C-5.32 86 -6.64 86 -8 86 C-8 86.66 -8 87.32 -8 88 C-10.97 88.99 -10.97 88.99 -14 90 C-14.33 115.08 -14.66 140.16 -15 166 C-27.313125 166.0309375 -27.313125 166.0309375 -39.875 166.0625 C-43.73227783 166.07615601 -43.73227783 166.07615601 -47.66748047 166.09008789 C-49.73404895 166.09301191 -51.80061801 166.09555932 -53.8671875 166.09765625 C-54.91720947 166.10277222 -55.96723145 166.10788818 -57.04907227 166.11315918 C-63.42875022 166.11390464 -69.66658992 165.77440297 -76 165 C-76 164.34 -76 163.68 -76 163 C-77.98 163 -79.96 163 -82 163 C-82 162.34 -82 161.68 -82 161 C-83.98 161 -85.96 161 -88 161 C-88 160.34 -88 159.68 -88 159 C-89.65 159 -91.3 159 -93 159 C-93 158.34 -93 157.68 -93 157 C-94.32 157 -95.64 157 -97 157 C-97 156.34 -97 155.68 -97 155 C-98.32 155 -99.64 155 -101 155 C-101 154.34 -101 153.68 -101 153 C-101.99 153 -102.98 153 -104 153 C-104 152.34 -104 151.68 -104 151 C-105.32 151 -106.64 151 -108 151 C-108 150.34 -108 149.68 -108 149 C-108.763125 148.71125 -109.52625 148.4225 -110.3125 148.125 C-113 147 -113 147 -116 145 C-116 144.34 -116 143.68 -116 143 C-117.65 142.34 -119.3 141.68 -121 141 C-121 140.34 -121 139.68 -121 139 C-121.58265625 138.7421875 -122.1653125 138.484375 -122.765625 138.21875 C-125.1802903 136.90165983 -126.81740177 135.44911616 -128.75 133.5 C-129.36359375 132.8915625 -129.9771875 132.283125 -130.609375 131.65625 C-132 130 -132 130 -132 128 C-132.66 128 -133.32 128 -134 128 C-134.99 125.525 -134.99 125.525 -136 123 C-136.66 123 -137.32 123 -138 123 C-138.66 121.35 -139.32 119.7 -140 118 C-140.66 118 -141.32 118 -142 118 C-142 117.01 -142 116.02 -142 115 C-142.66 115 -143.32 115 -144 115 C-144 113.68 -144 112.36 -144 111 C-144.66 111 -145.32 111 -146 111 C-146 110.01 -146 109.02 -146 108 C-146.66 108 -147.32 108 -148 108 C-148 106.68 -148 105.36 -148 104 C-148.66 104 -149.32 104 -150 104 C-150 102.68 -150 101.36 -150 100 C-150.66 100 -151.32 100 -152 100 C-152 98.35 -152 96.7 -152 95 C-152.66 95 -153.32 95 -154 95 C-154 93.02 -154 91.04 -154 89 C-154.66 89 -155.32 89 -156 89 C-156 87.02 -156 85.04 -156 83 C-156.66 83 -157.32 83 -158 83 C-158.94192274 75.87854259 -159.13176388 68.92454193 -159.09765625 61.74609375 C-159.09664917 60.73293091 -159.09564209 59.71976807 -159.09460449 58.67590332 C-159.08941456 54.92975719 -159.07545365 51.18362733 -159.0625 47.4375 C-159.041875 39.043125 -159.02125 30.64875 -159 22 C-132.93 22 -106.86 22 -80 22 C-79.67 20.35 -79.34 18.7 -79 17 C-78.34 17 -77.68 17 -77 17 C-76.76023437 16.27296875 -76.52046875 15.5459375 -76.2734375 14.796875 C-74.81852288 11.60141834 -73.1139438 9.71413705 -70.625 7.25 C-69.85414062 6.47140625 -69.08328125 5.6928125 -68.2890625 4.890625 C-66.06949687 3.05740014 -64.80775207 2.38462357 -62 2 C-62 1.34 -62 0.68 -62 0 C-42.23490399 -10.64274401 -19.80369208 -11.55215371 0 0 Z " fill="#FCFDFE" transform="translate(159,234)"/>
<path d="M0 0 C7.92 0 15.84 0 24 0 C24.33 24.75 24.66 49.5 25 75 C27.64 75.66 30.28 76.32 33 77 C35.96875 78.2890625 35.96875 78.2890625 38.5 79.625 C39.3559375 80.07101563 40.211875 80.51703125 41.09375 80.9765625 C41.7228125 81.31429687 42.351875 81.65203125 43 82 C43 82.66 43 83.32 43 84 C43.5775 84.28875 44.155 84.5775 44.75 84.875 C45.4925 85.24625 46.235 85.6175 47 86 C48.0828125 86.4640625 48.0828125 86.4640625 49.1875 86.9375 C51 88 51 88 52 91 C53.485 91.99 53.485 91.99 55 93 C55.33 93.99 55.66 94.98 56 96 C56.495 96.474375 56.99 96.94875 57.5 97.4375 C59.24185971 99.25193719 59.57855013 100.55559077 60 103 C60.66 103 61.32 103 62 103 C62.41572266 104.06541016 62.41572266 104.06541016 62.83984375 105.15234375 C63.38318359 106.53099609 63.38318359 106.53099609 63.9375 107.9375 C64.29714844 108.85402344 64.65679687 109.77054687 65.02734375 110.71484375 C65.7996218 112.92418533 65.7996218 112.92418533 67 114 C67.16096201 125.27883796 66.34363368 134.8752204 61 145 C60.62101562 145.8146875 60.24203125 146.629375 59.8515625 147.46875 C57.34109195 152.82945402 57.34109195 152.82945402 55 154 C54.67 154.99 54.34 155.98 54 157 C53.34 157 52.68 157 52 157 C51.67 157.99 51.34 158.98 51 160 C48.78515625 161.60546875 48.78515625 161.60546875 46.0625 163.1875 C45.16660156 163.71730469 44.27070313 164.24710938 43.34765625 164.79296875 C41 166 41 166 39 166 C39 166.66 39 167.32 39 168 C37.50292061 168.63196384 36.00213297 169.25514393 34.5 169.875 C33.24703125 170.39707031 33.24703125 170.39707031 31.96875 170.9296875 C15.85648787 176.73858201 0.3012153 175.18045857 -15 168 C-15 167.34 -15 166.68 -15 166 C-16.3303125 165.62875 -16.3303125 165.62875 -17.6875 165.25 C-21.6798152 163.74346596 -25.04062332 161.91875337 -27 158 C-27.99 157.67 -28.98 157.34 -30 157 C-31.4296875 154.90234375 -31.4296875 154.90234375 -33 152 C-33.32000977 151.43297363 -33.64001953 150.86594727 -33.96972656 150.28173828 C-35.03970699 148.38486329 -36.08374766 146.47527673 -37.125 144.5625 C-37.48464844 143.91990234 -37.84429687 143.27730469 -38.21484375 142.61523438 C-43.2046601 133.41117238 -43.54477295 120.69447806 -41.25 110.5 C-39.80092049 106.44257738 -38.03408967 102.79696738 -36 99 C-35.34 99 -34.68 99 -34 99 C-33.89300781 98.41347656 -33.78601563 97.82695313 -33.67578125 97.22265625 C-32.16216281 92.24433895 -27.37962626 87.6590588 -23 85 C-22.34 85 -21.68 85 -21 85 C-21 84.34 -21 83.68 -21 83 C-19.17215398 82.03124161 -17.33739059 81.07553127 -15.5 80.125 C-14.4790625 79.59132813 -13.458125 79.05765625 -12.40625 78.5078125 C-9 77 -9 77 -1 75 C-0.67 50.25 -0.34 25.5 0 0 Z " fill="#FDFCFE" transform="translate(116,0)"/>
<path d="M0 0 C24.42 0 48.84 0 74 0 C75.32 2.97 76.64 5.94 78 9 C79.01279653 10.99409461 80.05008082 12.97619459 81.125 14.9375 C81.62257813 15.85402344 82.12015625 16.77054687 82.6328125 17.71484375 C83.92819889 20.09070271 83.92819889 20.09070271 86 22 C86 22.99 86 23.98 86 25 C86.556875 25.061875 87.11375 25.12375 87.6875 25.1875 C90.92943577 26.32655851 92.5843041 28.5843041 95 31 C98.16645474 32.79320824 98.16645474 32.79320824 101 34 C101 34.66 101 35.32 101 36 C101.66386719 36.19335938 102.32773438 36.38671875 103.01171875 36.5859375 C104.33623047 36.97652344 104.33623047 36.97652344 105.6875 37.375 C106.99267578 37.75785156 106.99267578 37.75785156 108.32421875 38.1484375 C110.92513119 38.97617314 113.46577023 39.98630809 116 41 C116 65.75 116 90.5 116 116 C93 116 93 116 83 115 C83 114.34 83 113.68 83 113 C81.02 113 79.04 113 77 113 C77 112.34 77 111.68 77 111 C75.02 111 73.04 111 71 111 C71 110.34 71 109.68 71 109 C69.35 109 67.7 109 66 109 C66 108.34 66 107.68 66 107 C64.68 107 63.36 107 62 107 C62 106.34 62 105.68 62 105 C60.68 105 59.36 105 58 105 C58 104.34 58 103.68 58 103 C57.01 103 56.02 103 55 103 C55 102.34 55 101.68 55 101 C53.68 101 52.36 101 51 101 C51 100.34 51 99.68 51 99 C50.236875 98.71125 49.47375 98.4225 48.6875 98.125 C46 97 46 97 43 95 C43 94.34 43 93.68 43 93 C41.35 92.34 39.7 91.68 38 91 C38 90.34 38 89.68 38 89 C37.41734375 88.7421875 36.8346875 88.484375 36.234375 88.21875 C33.8197097 86.90165983 32.18259823 85.44911616 30.25 83.5 C29.63640625 82.8915625 29.0228125 82.283125 28.390625 81.65625 C27 80 27 80 27 78 C26.34 78 25.68 78 25 78 C24.34 76.35 23.68 74.7 23 73 C22.34 73 21.68 73 21 73 C20.34 71.35 19.68 69.7 19 68 C18.34 68 17.68 68 17 68 C17 67.01 17 66.02 17 65 C16.34 65 15.68 65 15 65 C15 63.68 15 62.36 15 61 C14.34 61 13.68 61 13 61 C13 60.01 13 59.02 13 58 C12.34 58 11.68 58 11 58 C11 56.68 11 55.36 11 54 C10.34 54 9.68 54 9 54 C9 52.68 9 51.36 9 50 C8.34 50 7.68 50 7 50 C7 48.35 7 46.7 7 45 C6.34 45 5.68 45 5 45 C5 43.02 5 41.04 5 39 C4.34 39 3.68 39 3 39 C3 37.02 3 35.04 3 33 C2.34 33 1.68 33 1 33 C-0.21530439 22.06226046 0 11.00504935 0 0 Z " fill="#397BE7" transform="translate(0,284)"/>
<path d="M0 0 C0.91644287 0.00523682 1.83288574 0.01047363 2.77709961 0.01586914 C4.26113281 0.02070313 4.26113281 0.02070313 5.77514648 0.02563477 C6.81606445 0.03401367 7.85698242 0.04239258 8.92944336 0.05102539 C10.49662109 0.05779297 10.49662109 0.05779297 12.09545898 0.06469727 C14.68600996 0.07652627 17.27644895 0.0930085 19.86694336 0.11352539 C22.01448638 7.06008423 24.16193488 14.00667228 26.30926895 20.95329571 C27.30680182 24.18030344 28.30436496 27.4073018 29.30200195 30.63427734 C30.4539379 34.36040807 31.60576302 38.08657304 32.75756836 41.81274414 C33.10877747 42.94870529 33.45998657 44.08466644 33.82183838 45.25505066 C34.49895833 47.445724 35.17487805 49.63676875 35.8494873 51.82821655 C36.56245946 54.13036386 37.28415391 56.42981955 38.0123291 58.72720337 C38.37910767 59.89214325 38.74588623 61.05708313 39.1237793 62.25732422 C39.45794861 63.30906326 39.79211792 64.36080231 40.13641357 65.44441223 C40.86694336 68.11352539 40.86694336 68.11352539 40.86694336 71.11352539 C35.58694336 71.11352539 30.30694336 71.11352539 24.86694336 71.11352539 C22.92221901 66.20943791 21.75114542 62.41873777 20.86694336 57.11352539 C12.94694336 57.44352539 5.02694336 57.77352539 -3.13305664 58.11352539 C-4.45305664 62.40352539 -5.77305664 66.69352539 -7.13305664 71.11352539 C-12.74305664 71.11352539 -18.35305664 71.11352539 -24.13305664 71.11352539 C-23.3712207 68.57407227 -22.60938477 66.03461914 -21.82446289 63.41821289 C-21.56244583 62.54471695 -21.30042877 61.67122101 -21.0304718 60.77125549 C-19.70616373 56.35642952 -18.38133314 51.94176125 -17.05566406 47.52734375 C-14.4829886 38.95873785 -11.91471902 30.38893488 -9.36743164 21.81274414 C-8.75355325 19.75027824 -8.13940121 17.68789408 -7.52511597 15.62554932 C-6.9521543 13.69821863 -6.38255143 11.76989048 -5.81298828 9.84155273 C-5.47130615 8.69509277 -5.12962402 7.54863281 -4.77758789 6.36743164 C-4.48215088 5.37042236 -4.18671387 4.37341309 -3.88232422 3.34619141 C-2.80954614 0.14952947 -2.80954614 0.14952947 0 0 Z " fill="#FDFDFE" transform="translate(251.133056640625,452.886474609375)"/>
<path d="M0 0 C4.76576717 3.98768274 6.70712587 8.52228738 7.42895508 14.69750977 C7.56304447 18.1820664 7.55922245 21.6385168 7.5 25.125 C7.50708984 26.30513672 7.51417969 27.48527344 7.52148438 28.70117188 C7.4182448 42.89264221 7.4182448 42.89264221 2.64624023 48.11132812 C-2.08841941 52.2628225 -5.69781606 52.70042745 -11.8125 52.6875 C-13.02679688 52.69007813 -14.24109375 52.69265625 -15.4921875 52.6953125 C-18.9375 52.5625 -18.9375 52.5625 -23.9375 51.5625 C-23.9375 58.4925 -23.9375 65.4225 -23.9375 72.5625 C-32.9375 74.5625 -32.9375 74.5625 -38.9375 74.5625 C-38.9375 49.8125 -38.9375 25.0625 -38.9375 -0.4375 C-34.9775 -0.4375 -31.0175 -0.4375 -26.9375 -0.4375 C-26.2775 0.5525 -25.6175 1.5425 -24.9375 2.5625 C-24.04611328 2.129375 -24.04611328 2.129375 -23.13671875 1.6875 C-15.68840461 -1.64860338 -7.76168185 -3.59889949 0 0 Z " fill="#FEFEFE" transform="translate(339.9375,472.4375)"/>
<path d="M0 0 C4.76576717 3.98768274 6.70712587 8.52228738 7.42895508 14.69750977 C7.56304447 18.1820664 7.55922245 21.6385168 7.5 25.125 C7.50708984 26.30513672 7.51417969 27.48527344 7.52148438 28.70117188 C7.4182448 42.89264221 7.4182448 42.89264221 2.64624023 48.11132812 C-2.08841941 52.2628225 -5.69781606 52.70042745 -11.8125 52.6875 C-13.02679688 52.69007813 -14.24109375 52.69265625 -15.4921875 52.6953125 C-18.9375 52.5625 -18.9375 52.5625 -23.9375 51.5625 C-23.9375 58.4925 -23.9375 65.4225 -23.9375 72.5625 C-32.9375 74.5625 -32.9375 74.5625 -38.9375 74.5625 C-38.9375 49.8125 -38.9375 25.0625 -38.9375 -0.4375 C-34.9775 -0.4375 -31.0175 -0.4375 -26.9375 -0.4375 C-26.2775 0.5525 -25.6175 1.5425 -24.9375 2.5625 C-24.04611328 2.129375 -24.04611328 2.129375 -23.13671875 1.6875 C-15.68840461 -1.64860338 -7.76168185 -3.59889949 0 0 Z " fill="#FEFEFE" transform="translate(214.9375,472.4375)"/>
<path d="M0 0 C1.12535156 -0.00257813 2.25070313 -0.00515625 3.41015625 -0.0078125 C4.57675781 -0.00007813 5.74335937 0.00765625 6.9453125 0.015625 C8.68361328 0.00402344 8.68361328 0.00402344 10.45703125 -0.0078125 C16.37320126 0.00571017 21.49750864 0.21847256 27.0703125 2.265625 C26.7403125 6.555625 26.4103125 10.845625 26.0703125 15.265625 C24.30042969 15.17023438 22.53054687 15.07484375 20.70703125 14.9765625 C18.39065202 14.86402586 16.07424417 14.75207715 13.7578125 14.640625 C12.59056641 14.57617188 11.42332031 14.51171875 10.22070312 14.4453125 C9.10244141 14.39375 7.98417969 14.3421875 6.83203125 14.2890625 C5.80037842 14.23669434 4.76872559 14.18432617 3.70581055 14.13037109 C0.83613586 14.05245146 0.83613586 14.05245146 -1.9296875 16.265625 C-2.29331568 18.47287573 -2.29331568 18.47287573 -2.1171875 20.890625 C-2.09011719 21.70789063 -2.06304687 22.52515625 -2.03515625 23.3671875 C-1.98294922 24.30691406 -1.98294922 24.30691406 -1.9296875 25.265625 C2.33205845 27.55241551 6.39823495 29.03613091 11.0703125 30.265625 C18.26360168 32.15859584 23.78400492 33.91553969 28.0703125 40.265625 C30.26462105 46.84855064 30.11168767 56.25132229 27.9453125 62.890625 C25.20135423 67.82974988 22.28158681 70.478842 16.94140625 72.37890625 C12.49288471 73.39789151 8.42805532 73.60788634 3.8828125 73.578125 C3.05144775 73.57611084 2.22008301 73.57409668 1.36352539 73.57202148 C-5.9698258 73.45336344 -13.28759234 72.58667258 -19.9296875 69.265625 C-19.78737942 67.84859987 -19.64068004 66.4320154 -19.4921875 65.015625 C-19.41097656 64.22671875 -19.32976563 63.4378125 -19.24609375 62.625 C-18.95333757 60.44197861 -18.50904331 58.3883068 -17.9296875 56.265625 C-16.7540625 56.575 -15.5784375 56.884375 -14.3671875 57.203125 C-5.77481543 59.11254102 3.40873737 60.03519411 12.0703125 58.265625 C12.20544542 56.4968852 12.30236836 54.72519445 12.3828125 52.953125 C12.46982422 51.47392578 12.46982422 51.47392578 12.55859375 49.96484375 C12.34029317 47.11955795 12.34029317 47.11955795 10.015625 45.53515625 C6.59788585 44.06199282 3.25053117 43.13999809 -0.3671875 42.265625 C-13.32901346 39.12653496 -13.32901346 39.12653496 -16.9296875 34.265625 C-19.92726714 26.78826766 -20.67058028 16.73187887 -17.7421875 9.078125 C-13.43596871 2.39606136 -7.75371088 0.01717322 0 0 Z " fill="#FCFDFE" transform="translate(45.9296875,451.734375)"/>
<path d="M0 0 C5.30831068 3.28171051 7.72151223 7.36001129 9.3125 13.3125 C9.5389341 16.27843833 9.50247514 19.21531855 9.4375 22.1875 C9.39625 24.86875 9.355 27.55 9.3125 30.3125 C0.0725 30.3125 -9.1675 30.3125 -18.6875 30.3125 C-18.3575 32.9525 -18.0275 35.5925 -17.6875 38.3125 C-14.62494039 38.3395491 -11.5626214 38.35936298 -8.5 38.375 C-7.20352539 38.38756836 -7.20352539 38.38756836 -5.88085938 38.40039062 C-1.68463231 38.41646812 2.22186886 38.38809038 6.3125 37.3125 C7.45014351 41.57866316 8.3125 44.87736311 8.3125 49.3125 C-1.59318504 52.8382523 -13.80982161 54.70348938 -23.875 50.6875 C-28.15821419 48.37800401 -31.69443371 45.24339181 -33.29980469 40.50537109 C-34.20356135 35.39356862 -33.91575556 30.11267637 -33.9375 24.9375 C-33.958125 23.71804688 -33.97875 22.49859375 -34 21.2421875 C-34.00515625 20.06140625 -34.0103125 18.880625 -34.015625 17.6640625 C-34.0249707 16.58979004 -34.03431641 15.51551758 -34.04394531 14.40869141 C-33.45009893 9.25036277 -31.52776718 6.11623383 -27.8125 2.5625 C-20.18513038 -2.92920613 -8.66828567 -4.03974823 0 0 Z " fill="#FDFDFE" transform="translate(117.6875,472.6875)"/>
<path d="M0 0 C0.66 4.62 1.32 9.24 2 14 C-1.17689453 15.22396484 -1.17689453 15.22396484 -4.41796875 16.47265625 C-7.14462792 17.7744942 -8.63160611 18.94408368 -11 21 C-12.79386942 26.50175021 -12.55684974 31.7099672 -12.3125 37.4375 C-12.29548964 38.94721036 -12.28436605 40.45699919 -12.27929688 41.96679688 C-12.26512373 45.65384017 -12.13025384 49.308051 -12 53 C-17.28 53 -22.56 53 -28 53 C-28 35.84 -28 18.68 -28 1 C-23.71 1 -19.42 1 -15 1 C-14.34 2.32 -13.68 3.64 -13 5 C-12.22914063 4.6390625 -11.45828125 4.278125 -10.6640625 3.90625 C-9.66117188 3.4421875 -8.65828125 2.978125 -7.625 2.5 C-6.62726563 2.0359375 -5.62953125 1.571875 -4.6015625 1.09375 C-2 0 -2 0 0 0 Z " fill="#FAFBFE" transform="translate(166,471)"/>
<path d="M0 0 C4.95 0 9.9 0 15 0 C15 17.16 15 34.32 15 52 C10.05 52 5.1 52 0 52 C0 34.84 0 17.68 0 0 Z " fill="#FEFEFE" transform="translate(358,472)"/>
<path d="M0 0 C4.02146753 4.25963965 3.48115857 8.44345447 3.4375 14 C3.4674707 15.35351562 3.4674707 15.35351562 3.49804688 16.734375 C3.49511956 20.6921054 3.47672031 23.23087607 1.36328125 26.640625 C-3.19349001 29.26170996 -7.96630168 27.65656935 -13 27 C-13 19.41 -13 11.82 -13 4 C-4.55172414 -0.82758621 -4.55172414 -0.82758621 0 0 Z " fill="#4F73E9" transform="translate(329,484)"/>
<path d="M0 0 C4.02146753 4.25963965 3.48115857 8.44345447 3.4375 14 C3.4674707 15.35351562 3.4674707 15.35351562 3.49804688 16.734375 C3.49511956 20.6921054 3.47672031 23.23087607 1.36328125 26.640625 C-3.19349001 29.26170996 -7.96630168 27.65656935 -13 27 C-13 19.41 -13 11.82 -13 4 C-4.55172414 -0.82758621 -4.55172414 -0.82758621 0 0 Z " fill="#4F73E9" transform="translate(204,484)"/>
<path d="M0 0 C0.66 0 1.32 0 2 0 C2 24.09 2 48.18 2 73 C2.99 72.505 2.99 72.505 4 72 C5.81171098 71.84693099 7.6283794 71.75053339 9.4453125 71.68359375 C10.52167969 71.64169922 11.59804688 71.59980469 12.70703125 71.55664062 C13.83496094 71.51732422 14.96289062 71.47800781 16.125 71.4375 C17.26066406 71.39431641 18.39632813 71.35113281 19.56640625 71.30664062 C22.37747768 71.2003396 25.18863945 71.09830595 28 71 C28 70.01 28 69.02 28 68 C29.65 68 31.3 68 33 68 C33 67.34 33 66.68 33 66 C33.556875 65.90203125 34.11375 65.8040625 34.6875 65.703125 C39.71767123 64.71748334 43.88383647 63.28854305 48.37109375 60.8046875 C50 60 50 60 52 60 C52 60.66 52 61.32 52 62 C51.01 62 50.02 62 49 62 C49 62.66 49 63.32 49 64 C47.68 64 46.36 64 45 64 C45 64.66 45 65.32 45 66 C43.68 66 42.36 66 41 66 C41 66.66 41 67.32 41 68 C39.35 68 37.7 68 36 68 C36 68.66 36 69.32 36 70 C34.02 70 32.04 70 30 70 C30 70.66 30 71.32 30 72 C28.02 72 26.04 72 24 72 C24 72.66 24 73.32 24 74 C15.80549448 75.15010604 8.50719893 75 0 75 C0 50.25 0 25.5 0 0 Z " fill="#4956E9" transform="translate(293,325)"/>
<path d="M0 0 C2 1 2 1 2.86962891 3.46850586 C3.15241699 4.53979736 3.43520508 5.61108887 3.7265625 6.71484375 C4.0359375 7.87564453 4.3453125 9.03644531 4.6640625 10.23242188 C4.98117187 11.45509766 5.29828125 12.67777344 5.625 13.9375 C5.94984375 15.15630859 6.2746875 16.37511719 6.609375 17.63085938 C9 26.68610491 9 26.68610491 9 29 C3.72 29 -1.56 29 -7 29 C-6.3850185 22.39867961 -4.82360905 16.34537846 -2.9375 10 C-2.65583984 9.03449219 -2.37417969 8.06898438 -2.08398438 7.07421875 C-1.39475721 4.71449184 -0.69999989 2.35654915 0 0 Z " fill="#5074E8" transform="translate(259,468)"/>
<path d="M0 0 C4.95 0 9.9 0 15 0 C15 5.28 15 10.56 15 16 C10.05 16 5.1 16 0 16 C0 10.72 0 5.44 0 0 Z " fill="#FEFEFE" transform="translate(358,449)"/>
<path d="M0 0 C0.33 0 0.66 0 1 0 C1 1.65 1 3.3 1 5 C-25.07 5 -51.14 5 -78 5 C-78 4.01 -78 3.02 -78 2 C-77.03755875 1.98969254 -76.07511749 1.97938507 -75.08351135 1.96876526 C-66.03332912 1.87119981 -56.98321823 1.76848217 -47.9331522 1.66066074 C-43.27992231 1.60538993 -38.62668619 1.55196342 -33.97338867 1.50268555 C-29.48649883 1.45510315 -24.99968788 1.40276283 -20.51289177 1.34705925 C-18.79721975 1.32660784 -17.08152607 1.30789947 -15.36581612 1.29092598 C-12.97109231 1.26694335 -10.57651898 1.23688088 -8.18188477 1.20532227 C-7.46547318 1.1995668 -6.74906158 1.19381134 -6.01094055 1.18788147 C-2.72243051 1.41761825 -2.72243051 1.41761825 0 0 Z " fill="#457BEA" transform="translate(78,251)"/>
<path d="M0 0 C1.32 0.33 2.64 0.66 4 1 C2.68 1.33 1.36 1.66 0 2 C0 1.34 0 0.68 0 0 Z M-4 1 C-2.68 1.33 -1.36 1.66 0 2 C-0.33 26.75 -0.66 51.5 -1 77 C-1.99 77 -2.98 77 -4 77 C-4 51.92 -4 26.84 -4 1 Z " fill="#4679EA" transform="translate(148,323)"/>
<path d="M0 0 C1.32 0.33 2.64 0.66 4 1 C3.67 25.09 3.34 49.18 3 74 C4.32 74.33 5.64 74.66 7 75 C4.69 75 2.38 75 0 75 C0 50.25 0 25.5 0 0 Z " fill="#735BED" transform="translate(140,0)"/>
<path d="M0 0 C0.66 0.66 1.32 1.32 2 2 C5.07643126 2.33320576 5.07643126 2.33320576 8.74462891 2.31884766 C9.43742447 2.32889328 10.13022003 2.3389389 10.8440094 2.34928894 C13.13818518 2.38022553 15.43224373 2.39718476 17.7265625 2.4140625 C19.31555192 2.43276577 20.90453133 2.45233854 22.49349976 2.4727478 C26.67901718 2.52416409 30.86456683 2.56373877 35.05023193 2.60089111 C39.32002803 2.64087143 43.58968895 2.69199093 47.859375 2.7421875 C56.23949113 2.83905915 64.61967393 2.92342772 73 3 C73 3.99 73 4.98 73 6 C48.91 6 24.82 6 0 6 C0 4.02 0 2.04 0 0 Z " fill="#8B4CEF" transform="translate(327,102)"/>
<path d="M0 0 C23.43 0 46.86 0 71 0 C71 0.99 71 1.98 71 3 C70.14000397 3.01030746 69.28000793 3.02061493 68.39395142 3.03123474 C60.30062611 3.12909611 52.2073758 3.23159421 44.1141758 3.33933926 C39.95309752 3.39457122 35.79201222 3.44799165 31.63085938 3.49731445 C27.61728058 3.54495399 23.60378848 3.59729664 19.59031296 3.65294075 C18.05689011 3.67336617 16.52344349 3.69207895 14.98997879 3.70907402 C12.84690991 3.73311395 10.70400538 3.76316889 8.56103516 3.79467773 C6.72903061 3.81799416 6.72903061 3.81799416 4.86001587 3.84178162 C2.05488886 3.80708643 2.05488886 3.80708643 0 5 C0 3.35 0 1.7 0 0 Z " fill="#874DEF" transform="translate(329,136)"/>
<path d="M0 0 C2.84057809 3.19565036 3 4.6747043 3 9 C-1.62 9 -6.24 9 -11 9 C-11 3 -11 3 -10 1.125 C-6.78087539 -0.68575759 -3.58472828 -0.80656386 0 0 Z " fill="#5174E7" transform="translate(110,483)"/>
<path d="M0 0 C6.93 0.495 6.93 0.495 14 1 C14 1.66 14 2.32 14 3 C15.98 3 17.96 3 20 3 C20 3.66 20 4.32 20 5 C21.98 5 23.96 5 26 5 C26 5.66 26 6.32 26 7 C27.65 7 29.3 7 31 7 C31 7.66 31 8.32 31 9 C32.32 9 33.64 9 35 9 C35 9.66 35 10.32 35 11 C36.32 11 37.64 11 39 11 C39 11.66 39 12.32 39 13 C39.99 13 40.98 13 42 13 C42 13.66 42 14.32 42 15 C40.35 15 38.7 15 37 15 C37 14.34 37 13.68 37 13 C35.68 13 34.36 13 33 13 C33 12.34 33 11.68 33 11 C31.9275 11.04125 30.855 11.0825 29.75 11.125 C26.2176046 11.00725349 24.91989975 10.71166537 22 9 C20.6757713 8.63215869 19.34386088 8.28797019 18 8 C18 6.68 18 5.36 18 4 C16.71222656 4.04640625 16.71222656 4.04640625 15.3984375 4.09375 C11.90609128 3.99740941 8.99383815 3.39835684 5.625 2.5 C4.56539063 2.2215625 3.50578125 1.943125 2.4140625 1.65625 C1.21910156 1.33140625 1.21910156 1.33140625 0 1 C0 0.67 0 0.34 0 0 Z " fill="#5A2C97" transform="translate(303,0)"/>
<path d="M0 0 C0.66 0 1.32 0 2 0 C2 2.64 2 5.28 2 8 C0.02 8.99 0.02 8.99 -2 10 C-1.938125 11.19625 -1.87625 12.3925 -1.8125 13.625 C-1.79056063 17.73497595 -2.86869566 20.4478261 -5 24 C-6.32 24 -7.64 24 -9 24 C-9.33 25.32 -9.66 26.64 -10 28 C-10 26.02 -10 24.04 -10 22 C-9.34 22 -8.68 22 -8 22 C-8 20.02 -8 18.04 -8 16 C-7.34 16 -6.68 16 -6 16 C-6 14.35 -6 12.7 -6 11 C-5.34 11 -4.68 11 -4 11 C-4 9.68 -4 8.36 -4 7 C-3.34 7 -2.68 7 -2 7 C-2 5.68 -2 4.36 -2 3 C-1.34 3 -0.68 3 0 3 C0 2.01 0 1.02 0 0 Z " fill="#3E4AA4" transform="translate(13,55)"/>
<path d="M0 0 C0.66 0.33 1.32 0.66 2 1 C1.3125 3.875 1.3125 3.875 0 7 C-2.625 8.375 -2.625 8.375 -5 9 C-5 9.66 -5 10.32 -5 11 C-5.66 11 -6.32 11 -7 11 C-7 11.66 -7 12.32 -7 13 C-7.66 13 -8.32 13 -9 13 C-9.66 14.32 -10.32 15.64 -11 17 C-11.99 16.67 -12.98 16.34 -14 16 C-14 16.66 -14 17.32 -14 18 C-15.98 18.99 -15.98 18.99 -18 20 C-17.34 18.35 -16.68 16.7 -16 15 C-15.34 15 -14.68 15 -14 15 C-13.7421875 14.41734375 -13.484375 13.8346875 -13.21875 13.234375 C-11.90165983 10.8197097 -10.44911616 9.18259823 -8.5 7.25 C-7.8915625 6.63640625 -7.283125 6.0228125 -6.65625 5.390625 C-5 4 -5 4 -3 4 C-3 3.34 -3 2.68 -3 2 C-2.01 1.34 -1.02 0.68 0 0 Z " fill="#4F52C1" transform="translate(41,23)"/>
<path d="M0 0 C0 0.66 0 1.32 0 2 C-0.99 2 -1.98 2 -3 2 C-3 2.66 -3 3.32 -3 4 C-4.32 4 -5.64 4 -7 4 C-7 4.66 -7 5.32 -7 6 C-8.32 6 -9.64 6 -11 6 C-11 6.66 -11 7.32 -11 8 C-12.65 8 -14.3 8 -16 8 C-16 8.66 -16 9.32 -16 10 C-17.98 10 -19.96 10 -22 10 C-22 10.66 -22 11.32 -22 12 C-23.98 12 -25.96 12 -28 12 C-28 12.66 -28 13.32 -28 14 C-33.94 14.495 -33.94 14.495 -40 15 C-36.44221079 11.44221079 -31.35290505 11.04831804 -26.5 10.875 C-25.675 10.91625 -24.85 10.9575 -24 11 C-24 10.01 -24 9.02 -24 8 C-22.35 8 -20.7 8 -19 8 C-19 7.34 -19 6.68 -19 6 C-18.443125 5.90203125 -17.88625 5.8040625 -17.3125 5.703125 C-12.28232877 4.71748334 -8.11616353 3.28854305 -3.62890625 0.8046875 C-2 0 -2 0 0 0 Z " fill="#1E2146" transform="translate(345,385)"/>
<path d="M0 0 C0.33 1.32 0.66 2.64 1 4 C0.34 4 -0.32 4 -1 4 C-1.28875 4.763125 -1.5775 5.52625 -1.875 6.3125 C-3 9 -3 9 -5 12 C-5.66 12 -6.32 12 -7 12 C-7.66 13.65 -8.32 15.3 -9 17 C-9.66 17 -10.32 17 -11 17 C-11.25523437 17.58265625 -11.51046875 18.1653125 -11.7734375 18.765625 C-13.11741087 21.21388223 -14.61810296 22.81743248 -16.625 24.75 C-17.57246094 25.67039062 -17.57246094 25.67039062 -18.5390625 26.609375 C-19.02117187 27.06828125 -19.50328125 27.5271875 -20 28 C-20.66 27.67 -21.32 27.34 -22 27 C-21.15115234 26.22076172 -21.15115234 26.22076172 -20.28515625 25.42578125 C-19.55167969 24.72839844 -18.81820313 24.03101563 -18.0625 23.3125 C-17.33160156 22.62800781 -16.60070312 21.94351562 -15.84765625 21.23828125 C-13.80570157 18.76462368 -13.34750001 17.14956359 -13 14 C-12.34 14 -11.68 14 -11 14 C-11 13.34 -11 12.68 -11 12 C-10.34 12 -9.68 12 -9 12 C-9 11.34 -9 10.68 -9 10 C-8.39671875 9.75507813 -7.7934375 9.51015625 -7.171875 9.2578125 C-4.61035221 7.77434067 -3.72499008 6.41526069 -2.25 3.875 C-1.82203125 3.15054687 -1.3940625 2.42609375 -0.953125 1.6796875 C-0.63859375 1.12539063 -0.3240625 0.57109375 0 0 Z " fill="#2E2969" transform="translate(384,345)"/>
<path d="M0 0 C0.33 0 0.66 0 1 0 C1 9.9 1 19.8 1 30 C1.66 29.67 2.32 29.34 3 29 C5.37402501 28.92883618 7.75000677 28.91590915 10.125 28.9375 C11.40632813 28.94652344 12.68765625 28.95554687 14.0078125 28.96484375 C14.99523437 28.97644531 15.98265625 28.98804688 17 29 C10.09267318 32.45366341 9.93024083 32 0 32 C0 21.44 0 10.88 0 0 Z " fill="#4F62EA" transform="translate(294,368)"/>
<path d="M0 0 C0.66 0 1.32 0 2 0 C2.8723412 2.99480917 3.10829766 5.63575911 3.0625 8.75 C3.05347656 9.54921875 3.04445312 10.3484375 3.03515625 11.171875 C3.01775391 12.07679688 3.01775391 12.07679688 3 13 C3.66 13 4.32 13 5 13 C5 16.63 5 20.26 5 24 C4.34 24 3.68 24 3 24 C3 22.02 3 20.04 3 18 C2.34 18 1.68 18 1 18 C0.22959149 11.93303301 -0.09706112 6.11485027 0 0 Z " fill="#1D417A" transform="translate(0,299)"/>
<path d="M0 0 C0.66 0 1.32 0 2 0 C2 0.99 2 1.98 2 3 C2.66 3 3.32 3 4 3 C4 4.32 4 5.64 4 7 C4.66 7 5.32 7 6 7 C6 8.32 6 9.64 6 11 C6.66 11 7.32 11 8 11 C8 12.65 8 14.3 8 16 C8.66 16 9.32 16 10 16 C10 17.98 10 19.96 10 22 C9.34 22 8.68 22 8 22 C8 21.01 8 20.02 8 19 C7.34 19 6.68 19 6 19 C6 16.69 6 14.38 6 12 C5.34 12 4.68 12 4 12 C4 11.01 4 10.02 4 9 C3.34 9 2.68 9 2 9 C2 8.01 2 7.02 2 6 C1.34 6 0.68 6 0 6 C0 4.02 0 2.04 0 0 Z " fill="#492378" transform="translate(385,55)"/>
<path d="M0 0 C0.66 0 1.32 0 2 0 C2 1.98 2 3.96 2 6 C2.66 6 3.32 6 4 6 C4.77040851 12.06696699 5.09706112 17.88514973 5 24 C2.58112915 21.58112915 2.50623037 20.25907651 1.9375 16.9375 C1.58972434 13.66916048 1.58972434 13.66916048 0 11 C-0.07226502 9.14712498 -0.0838122 7.29166122 -0.0625 5.4375 C-0.05347656 4.42558594 -0.04445313 3.41367188 -0.03515625 2.37109375 C-0.02355469 1.58863281 -0.01195312 0.80617188 0 0 Z " fill="#47237B" transform="translate(395,77)"/>
<path d="M0 0 C0.66 0 1.32 0 2 0 C2.08685287 3.29150125 2.14033895 6.5827096 2.1875 9.875 C2.21263672 10.81214844 2.23777344 11.74929687 2.26367188 12.71484375 C2.27333984 13.61074219 2.28300781 14.50664063 2.29296875 15.4296875 C2.3086792 16.25710449 2.32438965 17.08452148 2.34057617 17.93701172 C2.22818604 18.61779785 2.1157959 19.29858398 2 20 C1.01 20.66 0.02 21.32 -1 22 C-1.11459026 14.58982977 -0.91160286 7.35793733 0 0 Z " fill="#30408F" transform="translate(1,83)"/>
<path d="M0 0 C0.33 0 0.66 0 1 0 C1.125 7.75 1.125 7.75 0 10 C-0.23029956 12.37123246 -0.41119942 14.74741943 -0.5625 17.125 C-0.64628906 18.40632813 -0.73007813 19.68765625 -0.81640625 21.0078125 C-0.90728516 22.48894531 -0.90728516 22.48894531 -1 24 C-0.34 24 0.32 24 1 24 C1 26.64 1 29.28 1 32 C-2.98873507 28.01126493 -2.18315878 22.56365834 -2.1875 17.25 C-2.19974609 16.4765625 -2.21199219 15.703125 -2.22460938 14.90625 C-2.23793666 9.61087482 -1.46976503 5.08898881 0 0 Z " fill="#C5C9F8" transform="translate(224,259)"/>
<path d="M0 0 C6.93 0.495 6.93 0.495 14 1 C14 1.66 14 2.32 14 3 C15.98 3 17.96 3 20 3 C20 3.66 20 4.32 20 5 C21.98 5 23.96 5 26 5 C26 5.66 26 6.32 26 7 C23.36 7 20.72 7 18 7 C18 6.01 18 5.02 18 4 C16.71222656 4.04640625 16.71222656 4.04640625 15.3984375 4.09375 C11.90609128 3.99740941 8.99383815 3.39835684 5.625 2.5 C4.56539063 2.2215625 3.50578125 1.943125 2.4140625 1.65625 C1.21910156 1.33140625 1.21910156 1.33140625 0 1 C0 0.67 0 0.34 0 0 Z " fill="#351957" transform="translate(303,0)"/>
<path d="M0 0 C-3.03847582 3.03847582 -10.56535793 2.98501234 -14.625 3.125 C-15.40875 3.08375 -16.1925 3.0425 -17 3 C-17 3.99 -17 4.98 -17 6 C-19.64 6 -22.28 6 -25 6 C-25 5.34 -25 4.68 -25 4 C-23.02 4 -21.04 4 -19 4 C-19 3.34 -19 2.68 -19 2 C-17.02 2 -15.04 2 -13 2 C-13 1.34 -13 0.68 -13 0 C-11.58456585 -0.19658808 -10.16755969 -0.38187546 -8.75 -0.5625 C-7.96109375 -0.66691406 -7.1721875 -0.77132813 -6.359375 -0.87890625 C-3.99467126 -1.00027349 -2.2488963 -0.69633257 0 0 Z " fill="#292355" transform="translate(96,1)"/>
<path d="M0 0 C0.66 0.33 1.32 0.66 2 1 C1.34 2.98 0.68 4.96 0 7 C-0.73605469 6.9175 -1.47210938 6.835 -2.23046875 6.75 C-5.87494915 7.0789799 -6.86697257 8.34722448 -9.3125 11 C-10.00988281 11.7425 -10.70726562 12.485 -11.42578125 13.25 C-11.94527344 13.8275 -12.46476562 14.405 -13 15 C-13 12 -13 12 -11.3203125 9.95703125 C-10.23363281 8.89548828 -10.23363281 8.89548828 -9.125 7.8125 C-8.04605469 6.73935547 -8.04605469 6.73935547 -6.9453125 5.64453125 C-5 4 -5 4 -3 4 C-3 3.34 -3 2.68 -3 2 C-2.01 1.34 -1.02 0.68 0 0 Z " fill="#2C2E72" transform="translate(41,23)"/>
<path d="M0 0 C5.70086567 -0.38869539 10.53686969 0.75050201 16.03515625 2.24609375 C19.01050018 3.00267001 21.96662052 3.53575322 25 4 C25 4.33 25 4.66 25 5 C22.03 5 19.06 5 16 5 C16 4.34 16 3.68 16 3 C15.01257813 3.01160156 14.02515625 3.02320313 13.0078125 3.03515625 C11.72648437 3.04417969 10.44515625 3.05320313 9.125 3.0625 C7.84882813 3.07410156 6.57265625 3.08570313 5.2578125 3.09765625 C2 3 2 3 0 2 C0 1.34 0 0.68 0 0 Z " fill="#6F38BF" transform="translate(296,0)"/>
<path d="M0 0 C5.4387517 5.93318367 5.28550527 13.9192127 5.125 21.5 C5.11597656 22.32242187 5.10695312 23.14484375 5.09765625 23.9921875 C5.07436865 25.99492083 5.03850959 27.99750154 5 30 C4.67 30 4.34 30 4 30 C3.93941406 28.85660156 3.87882813 27.71320313 3.81640625 26.53515625 C3.73201572 25.04425695 3.64736698 23.55337225 3.5625 22.0625 C3.52318359 21.30775391 3.48386719 20.55300781 3.44335938 19.77539062 C3.55961976 16.08055813 3.55961976 16.08055813 2 13 C1.60360765 11.5735662 1.25690876 10.13312039 0.9375 8.6875 C0.76089844 7.90761719 0.58429688 7.12773437 0.40234375 6.32421875 C0 4 0 4 0 0 Z " fill="#C2C9F7" transform="translate(177,255)"/>
<path d="M0 0 C1.65 0 3.3 0 5 0 C3.02 0.99 3.02 0.99 1 2 C1 2.66 1 3.32 1 4 C-1.64 4.33 -4.28 4.66 -7 5 C-7 5.66 -7 6.32 -7 7 C-7.66 7 -8.32 7 -9 7 C-9 7.99 -9 8.98 -9 10 C-10.98 10 -12.96 10 -15 10 C-14.67 9.34 -14.34 8.68 -14 8 C-13.01 8 -12.02 8 -11 8 C-11 7.34 -11 6.68 -11 6 C-10.01 6 -9.02 6 -8 6 C-8 5.34 -8 4.68 -8 4 C-6.68 4 -5.36 4 -4 4 C-4 3.34 -4 2.68 -4 2 C-2.68 2 -1.36 2 0 2 C0 1.34 0 0.68 0 0 Z " fill="#2B275C" transform="translate(66,7)"/>
<path d="M0 0 C3.3 0 6.6 0 10 0 C10 0.99 10 1.98 10 3 C11.918125 2.938125 11.918125 2.938125 13.875 2.875 C16.0546875 2.8046875 16.0546875 2.8046875 18 3 C18.66 3.66 19.32 4.32 20 5 C13.07 4.505 13.07 4.505 6 4 C6 3.34 6 2.68 6 2 C4.02 2 2.04 2 0 2 C0 1.34 0 0.68 0 0 Z " fill="#173660" transform="translate(77,395)"/>
<path d="M0 0 C0.85980469 -0.00257812 1.71960938 -0.00515625 2.60546875 -0.0078125 C3.50652344 -0.00007813 4.40757812 0.00765625 5.3359375 0.015625 C6.21378906 0.00789063 7.09164063 0.00015625 7.99609375 -0.0078125 C13.56886333 0.00874848 18.36292023 0.69487867 23.7109375 2.265625 C23.7109375 2.595625 23.7109375 2.925625 23.7109375 3.265625 C22.23186858 3.29251716 20.75266267 3.31197121 19.2734375 3.328125 C18.03787109 3.34552734 18.03787109 3.34552734 16.77734375 3.36328125 C14.7109375 3.265625 14.7109375 3.265625 13.7109375 2.265625 C12.2222189 2.17893068 10.7294925 2.15859006 9.23828125 2.16796875 C7.88959961 2.17280273 7.88959961 2.17280273 6.51367188 2.17773438 C5.09538086 2.19030273 5.09538086 2.19030273 3.6484375 2.203125 C2.69904297 2.20763672 1.74964844 2.21214844 0.77148438 2.21679688 C-1.58209315 2.2286239 -3.93554727 2.24510475 -6.2890625 2.265625 C-3.87764259 -0.14579491 -3.29410769 0.00956993 0 0 Z " fill="#D7C7F9" transform="translate(269.2890625,73.734375)"/>
<path d="M0 0 C1.37478516 0.01740234 1.37478516 0.01740234 2.77734375 0.03515625 C3.69644531 0.04417969 4.61554688 0.05320313 5.5625 0.0625 C6.27277344 0.07410156 6.98304687 0.08570313 7.71484375 0.09765625 C6.72484375 1.58265625 6.72484375 1.58265625 5.71484375 3.09765625 C2.76420227 3.31851265 0.03116144 3.37826614 -2.91015625 3.28515625 C-3.71195312 3.27162109 -4.51375 3.25808594 -5.33984375 3.24414062 C-7.32190003 3.20874676 -9.30361176 3.15493859 -11.28515625 3.09765625 C-11.28515625 2.76765625 -11.28515625 2.43765625 -11.28515625 2.09765625 C-9.234375 1.86979167 -7.18359375 1.64192708 -5.1328125 1.4140625 C-2.7139361 0.99983631 -2.5926424 0.11079668 0 0 Z " fill="#5948C0" transform="translate(98.28515625,-0.09765625)"/>
<path d="M0 0 C0.33 0 0.66 0 1 0 C1.88612202 4.02782739 2.19648329 6.44157381 0.8125 10.375 C-1 13 -1 13 -3.1875 13.875 C-4.0846875 13.936875 -4.0846875 13.936875 -5 14 C-3.46527032 9.27775484 -1.76054874 4.64144669 0 0 Z " fill="#7187EE" transform="translate(180,287)"/>
<path d="M0 0 C4.62 0 9.24 0 14 0 C8.47017435 2.76491282 6.11226863 3.09858498 0 3 C0 2.01 0 1.02 0 0 Z " fill="#4150B3" transform="translate(297,397)"/>
<path d="M0 0 C1.03115279 3.26913624 0.9638984 5.86041348 0.5625 9.25 C0.46066406 10.14203125 0.35882813 11.0340625 0.25390625 11.953125 C0.17011719 12.62859375 0.08632813 13.3040625 0 14 C-0.66 14 -1.32 14 -2 14 C-2 15.98 -2 17.96 -2 20 C-2.66 20 -3.32 20 -4 20 C-3.52476432 17.04098541 -3.04499898 14.08283097 -2.5625 11.125 C-2.42779297 10.28324219 -2.29308594 9.44148438 -2.15429688 8.57421875 C-2.02216797 7.76855469 -1.89003906 6.96289062 -1.75390625 6.1328125 C-1.63345947 5.38918457 -1.5130127 4.64555664 -1.38891602 3.87939453 C-1 2 -1 2 0 0 Z " fill="#23194A" transform="translate(399,303)"/>
<path d="M0 0 C2.64 0 5.28 0 8 0 C8 0.66 8 1.32 8 2 C13.94 2 19.88 2 26 2 C26 2.33 26 2.66 26 3 C22.79174438 3.05849554 19.58362767 3.09376162 16.375 3.125 C15.47136719 3.14175781 14.56773438 3.15851563 13.63671875 3.17578125 C8.67249848 3.21201643 4.65588093 2.96444146 0 1 C0 0.67 0 0.34 0 0 Z " fill="#C8CCF8" transform="translate(111,171)"/>
<path d="M0 0 C5.28 0 10.56 0 16 0 C16 0.99 16 1.98 16 3 C10.45291384 3.2919519 5.38027025 2.19088986 0 1 C0 0.67 0 0.34 0 0 Z " fill="#2B63B8" transform="translate(87,397)"/>
<path d="M0 0 C0.66 0 1.32 0 2 0 C2.53093324 1.93475671 3.04942317 3.87293155 3.5625 5.8125 C3.85253906 6.89144531 4.14257812 7.97039062 4.44140625 9.08203125 C5 12 5 12 4 15 C0.56227273 11.56227273 0.02872226 7.89039016 -0.125 3.125 C-0.08375 2.09375 -0.0425 1.0625 0 0 Z " fill="#8945E8" transform="translate(395,89)"/>
<path d="M0 0 C0.66 0 1.32 0 2 0 C2.66 1.65 3.32 3.3 4 5 C4.66 5 5.32 5 6 5 C6.66 6.65 7.32 8.3 8 10 C6.02 9.34 4.04 8.68 2 8 C2 6.35 2 4.7 2 3 C1.34 3 0.68 3 0 3 C0 2.01 0 1.02 0 0 Z " fill="#4E2380" transform="translate(373,38)"/>
<path d="M0 0 C0 0.66 0 1.32 0 2 C-1.98 2 -3.96 2 -6 2 C-6 2.66 -6 3.32 -6 4 C-11.94 4.495 -11.94 4.495 -18 5 C-15.24633094 2.24633094 -12.7923872 2.14435724 -9 1.375 C-7.741875 1.11460937 -6.48375 0.85421875 -5.1875 0.5859375 C-2 0 -2 0 0 0 Z " fill="#1B1F42" transform="translate(323,395)"/>
<path d="M0 0 C3 3 3 3 3.2487793 5.0847168 C3.19117432 5.86500244 3.13356934 6.64528809 3.07421875 7.44921875 C3.01943359 8.29677734 2.96464844 9.14433594 2.90820312 10.01757812 C2.83537109 10.89865234 2.76253906 11.77972656 2.6875 12.6875 C2.62626953 13.58017578 2.56503906 14.47285156 2.50195312 15.39257812 C2.34874168 17.59646586 2.18091866 19.79824206 2 22 C1.67 22 1.34 22 1 22 C0.67 14.74 0.34 7.48 0 0 Z " fill="#B4ADF5" transform="translate(180,111)"/>
<path d="M0 0 C0.66 0 1.32 0 2 0 C2 1.65 2 3.3 2 5 C2.66 5 3.32 5 4 5 C4 6.98 4 8.96 4 11 C3.34 11 2.68 11 2 11 C2 10.01 2 9.02 2 8 C1.34 8 0.68 8 0 8 C0 5.36 0 2.72 0 0 Z " fill="#422071" transform="translate(391,66)"/>
<path d="M0 0 C0.66 0 1.32 0 2 0 C1.67 1.32 1.34 2.64 1 4 C0.34 4 -0.32 4 -1 4 C-1.66 5.98 -2.32 7.96 -3 10 C-3.66 10 -4.32 10 -5 10 C-5.33 10.66 -5.66 11.32 -6 12 C-6 10.68 -6 9.36 -6 8 C-5.34 8 -4.68 8 -4 8 C-3.71125 7.236875 -3.4225 6.47375 -3.125 5.6875 C-2 3 -2 3 0 0 Z " fill="#242757" transform="translate(21,43)"/>
<path d="M0 0 C1.65 0 3.3 0 5 0 C4.01 0.495 4.01 0.495 3 1 C3 1.99 3 2.98 3 4 C0.36 4 -2.28 4 -5 4 C-5 3.34 -5 2.68 -5 2 C-3.35 2 -1.7 2 0 2 C0 1.34 0 0.68 0 0 Z " fill="#38408D" transform="translate(326,391)"/>
<path d="M0 0 C0.66 0 1.32 0 2 0 C2 2.64 2 5.28 2 8 C1.01 8 0.02 8 -1 8 C-1.33 9.32 -1.66 10.64 -2 12 C-2 10.02 -2 8.04 -2 6 C-1.34 6 -0.68 6 0 6 C0 4.02 0 2.04 0 0 Z " fill="#242E61" transform="translate(5,71)"/>
<path d="M0 0 C3.68754757 0.49831724 5.60490662 1.10067643 8 4 C7.67 4.99 7.34 5.98 7 7 C5.2925002 5.71937515 3.62626404 4.38232443 2 3 C2 2.34 2 1.68 2 1 C1.34 0.67 0.68 0.34 0 0 Z " fill="#9A6AF1" transform="translate(305,81)"/>
<path d="M0 0 C4.54805635 -0.17835515 7.8794254 0.00214565 12 2 C12 2.66 12 3.32 12 4 C6.06 2.515 6.06 2.515 0 1 C0 0.67 0 0.34 0 0 Z " fill="#9D71F2" transform="translate(289,75)"/>
<path d="M0 0 C3 1.8125 3 1.8125 6 4 C6 4.99 6 5.98 6 7 C1.2 4.53846154 1.2 4.53846154 0.1875 1.8125 C0.125625 1.214375 0.06375 0.61625 0 0 Z " fill="#8641E0" transform="translate(353,21)"/>
<path d="M0 0 C0.99 0.33 1.98 0.66 3 1 C1.68 2.65 0.36 4.3 -1 6 C-1.99 5.34 -2.98 4.68 -4 4 C-2.68 3.34 -1.36 2.68 0 2 C0 1.34 0 0.68 0 0 Z " fill="#5B62E5" transform="translate(27,39)"/>
<path d="M0 0 C0.66 0 1.32 0 2 0 C2 0.66 2 1.32 2 2 C1.34 2 0.68 2 0 2 C0 1.34 0 0.68 0 0 Z " fill="#000000" transform="translate(363,375)"/>
<path d="M0 0 C0.66 0 1.32 0 2 0 C2 0.66 2 1.32 2 2 C1.34 2 0.68 2 0 2 C0 1.34 0 0.68 0 0 Z " fill="#000000" transform="translate(365,373)"/>
<path d="M0 0 C0.66 0 1.32 0 2 0 C2 0.66 2 1.32 2 2 C1.34 2 0.68 2 0 2 C0 1.34 0 0.68 0 0 Z " fill="#000000" transform="translate(367,371)"/>
<path d="M0 0 C0.66 0 1.32 0 2 0 C2 0.66 2 1.32 2 2 C1.34 2 0.68 2 0 2 C0 1.34 0 0.68 0 0 Z " fill="#000000" transform="translate(369,369)"/>
<path d="M0 0 C0.66 0 1.32 0 2 0 C2 0.66 2 1.32 2 2 C1.34 2 0.68 2 0 2 C0 1.34 0 0.68 0 0 Z " fill="#000000" transform="translate(371,367)"/>
<path d="M0 0 C0.66 0 1.32 0 2 0 C2 0.66 2 1.32 2 2 C1.34 2 0.68 2 0 2 C0 1.34 0 0.68 0 0 Z " fill="#000000" transform="translate(373,365)"/>
<path d="M0 0 C0.66 0 1.32 0 2 0 C2 0.66 2 1.32 2 2 C1.34 2 0.68 2 0 2 C0 1.34 0 0.68 0 0 Z " fill="#000000" transform="translate(375,363)"/>
<path d="M0 0 C0.66 0 1.32 0 2 0 C2 0.66 2 1.32 2 2 C1.34 2 0.68 2 0 2 C0 1.34 0 0.68 0 0 Z " fill="#000000" transform="translate(23,35)"/>
<path d="M0 0 C0.66 0 1.32 0 2 0 C2 0.66 2 1.32 2 2 C1.34 2 0.68 2 0 2 C0 1.34 0 0.68 0 0 Z " fill="#000000" transform="translate(25,33)"/>
<path d="M0 0 C0.66 0 1.32 0 2 0 C2 0.66 2 1.32 2 2 C1.34 2 0.68 2 0 2 C0 1.34 0 0.68 0 0 Z " fill="#000000" transform="translate(27,31)"/>
<path d="M0 0 C0.66 0 1.32 0 2 0 C2 0.66 2 1.32 2 2 C1.34 2 0.68 2 0 2 C0 1.34 0 0.68 0 0 Z " fill="#000000" transform="translate(29,29)"/>
<path d="M0 0 C0.66 0 1.32 0 2 0 C2 0.66 2 1.32 2 2 C1.34 2 0.68 2 0 2 C0 1.34 0 0.68 0 0 Z " fill="#000000" transform="translate(31,27)"/>
<path d="M0 0 C0.66 0 1.32 0 2 0 C2 0.66 2 1.32 2 2 C1.34 2 0.68 2 0 2 C0 1.34 0 0.68 0 0 Z " fill="#000000" transform="translate(33,25)"/>
<path d="M0 0 C0.66 0 1.32 0 2 0 C2 0.66 2 1.32 2 2 C1.34 2 0.68 2 0 2 C0 1.34 0 0.68 0 0 Z " fill="#000000" transform="translate(35,23)"/>
<path d="M0 0 C0.66 0 1.32 0 2 0 C1.67 0.66 1.34 1.32 1 2 C0.67 1.34 0.34 0.68 0 0 Z " fill="#000000" transform="translate(63,393)"/>
<path d="M0 0 C0.99 0.495 0.99 0.495 2 1 C1.01 1.495 1.01 1.495 0 2 C0 1.34 0 0.68 0 0 Z " fill="#000000" transform="translate(339,391)"/>
<path d="M0 0 C0.66 0 1.32 0 2 0 C1.67 0.66 1.34 1.32 1 2 C0.67 1.34 0.34 0.68 0 0 Z " fill="#000000" transform="translate(59,391)"/>
<path d="M0 0 C0.99 0.495 0.99 0.495 2 1 C1.01 1.495 1.01 1.495 0 2 C0 1.34 0 0.68 0 0 Z " fill="#000000" transform="translate(343,389)"/>
<path d="M0 0 C0.66 0 1.32 0 2 0 C1.67 0.66 1.34 1.32 1 2 C0.67 1.34 0.34 0.68 0 0 Z " fill="#000000" transform="translate(55,389)"/>
<path d="M0 0 C0.66 0 1.32 0 2 0 C1.67 0.66 1.34 1.32 1 2 C0.67 1.34 0.34 0.68 0 0 Z " fill="#000000" transform="translate(49,385)"/>
<path d="M0 0 C0.66 0 1.32 0 2 0 C1.67 0.66 1.34 1.32 1 2 C0.67 1.34 0.34 0.68 0 0 Z " fill="#000000" transform="translate(45,383)"/>
<path d="M0 0 C0.99 0.495 0.99 0.495 2 1 C1.01 1.495 1.01 1.495 0 2 C0 1.34 0 0.68 0 0 Z " fill="#000000" transform="translate(355,381)"/>
<path d="M0 0 C0.66 0 1.32 0 2 0 C1.67 0.66 1.34 1.32 1 2 C0.67 1.34 0.34 0.68 0 0 Z " fill="#000000" transform="translate(43,381)"/>
<path d="M0 0 C0.66 0 1.32 0 2 0 C1.67 0.66 1.34 1.32 1 2 C0.67 1.34 0.34 0.68 0 0 Z " fill="#000000" transform="translate(37,377)"/>
<path d="M0 0 C0.66 0 1.32 0 2 0 C1.67 0.66 1.34 1.32 1 2 C0.67 1.34 0.34 0.68 0 0 Z " fill="#000000" transform="translate(35,375)"/>
<path d="M0 0 C0.66 0 1.32 0 2 0 C1.67 0.66 1.34 1.32 1 2 C0.67 1.34 0.34 0.68 0 0 Z " fill="#000000" transform="translate(33,373)"/>
<path d="M0 0 C0.66 0 1.32 0 2 0 C1.67 0.66 1.34 1.32 1 2 C0.67 1.34 0.34 0.68 0 0 Z " fill="#000000" transform="translate(31,371)"/>
<path d="M0 0 C0.66 0 1.32 0 2 0 C1.67 0.66 1.34 1.32 1 2 C0.67 1.34 0.34 0.68 0 0 Z " fill="#000000" transform="translate(29,369)"/>
<path d="M0 0 C0.66 0 1.32 0 2 0 C1.67 0.66 1.34 1.32 1 2 C0.67 1.34 0.34 0.68 0 0 Z " fill="#000000" transform="translate(27,367)"/>
<path d="M0 0 C0.66 0 1.32 0 2 0 C1.67 0.66 1.34 1.32 1 2 C0.67 1.34 0.34 0.68 0 0 Z " fill="#000000" transform="translate(25,365)"/>
<path d="M0 0 C0.66 0 1.32 0 2 0 C1.67 0.66 1.34 1.32 1 2 C0.67 1.34 0.34 0.68 0 0 Z " fill="#000000" transform="translate(23,363)"/>
<path d="M0 0 C0.66 0 1.32 0 2 0 C1.67 0.66 1.34 1.32 1 2 C0.67 1.34 0.34 0.68 0 0 Z " fill="#000000" transform="translate(21,361)"/>
<path d="M0 0 C0.99 0.495 0.99 0.495 2 1 C1.01 1.495 1.01 1.495 0 2 C0 1.34 0 0.68 0 0 Z " fill="#000000" transform="translate(381,355)"/>
<path d="M0 0 C0.66 0 1.32 0 2 0 C1.67 0.66 1.34 1.32 1 2 C0.67 1.34 0.34 0.68 0 0 Z " fill="#000000" transform="translate(17,355)"/>
<path d="M0 0 C0.66 0 1.32 0 2 0 C1.67 0.66 1.34 1.32 1 2 C0.67 1.34 0.34 0.68 0 0 Z " fill="#000000" transform="translate(15,353)"/>
<path d="M0 0 C0.66 0 1.32 0 2 0 C1.67 0.66 1.34 1.32 1 2 C0.67 1.34 0.34 0.68 0 0 Z " fill="#000000" transform="translate(13,349)"/>
<path d="M0 0 C0.99 0.495 0.99 0.495 2 1 C1.01 1.495 1.01 1.495 0 2 C0 1.34 0 0.68 0 0 Z " fill="#000000" transform="translate(389,343)"/>
<path d="M0 0 C0.66 0 1.32 0 2 0 C1.67 0.66 1.34 1.32 1 2 C0.67 1.34 0.34 0.68 0 0 Z " fill="#000000" transform="translate(9,343)"/>
<path d="M0 0 C0.66 0 1.32 0 2 0 C1.67 0.66 1.34 1.32 1 2 C0.67 1.34 0.34 0.68 0 0 Z " fill="#000000" transform="translate(7,339)"/>
<path d="M0 0 C0.66 0 1.32 0 2 0 C1.67 0.66 1.34 1.32 1 2 C0.67 1.34 0.34 0.68 0 0 Z " fill="#000000" transform="translate(5,335)"/>
<path d="M0 0 C0.66 0.66 1.32 1.32 2 2 C1.34 2 0.68 2 0 2 C0 1.34 0 0.68 0 0 Z " fill="#000000" transform="translate(393,63)"/>
<path d="M0 0 C0.66 0.66 1.32 1.32 2 2 C1.34 2 0.68 2 0 2 C0 1.34 0 0.68 0 0 Z " fill="#000000" transform="translate(391,59)"/>
<path d="M0 0 C0.66 0.66 1.32 1.32 2 2 C1.34 2 0.68 2 0 2 C0 1.34 0 0.68 0 0 Z " fill="#000000" transform="translate(389,55)"/>
<path d="M0 0 C0.33 0.66 0.66 1.32 1 2 C0.34 1.67 -0.32 1.34 -1 1 C-0.67 0.67 -0.34 0.34 0 0 Z " fill="#000000" transform="translate(10,55)"/>
<path d="M0 0 C0.66 0.66 1.32 1.32 2 2 C1.34 2 0.68 2 0 2 C0 1.34 0 0.68 0 0 Z " fill="#000000" transform="translate(385,49)"/>
<path d="M0 0 C0.66 0.66 1.32 1.32 2 2 C1.34 2 0.68 2 0 2 C0 1.34 0 0.68 0 0 Z " fill="#000000" transform="translate(383,45)"/>
<path d="M0 0 C0.66 0.66 1.32 1.32 2 2 C1.34 2 0.68 2 0 2 C0 1.34 0 0.68 0 0 Z " fill="#000000" transform="translate(381,43)"/>
<path d="M0 0 C0.33 0.66 0.66 1.32 1 2 C0.34 1.67 -0.32 1.34 -1 1 C-0.67 0.67 -0.34 0.34 0 0 Z " fill="#000000" transform="translate(18,43)"/>
<path d="M0 0 C0.66 0.66 1.32 1.32 2 2 C1.34 2 0.68 2 0 2 C0 1.34 0 0.68 0 0 Z " fill="#000000" transform="translate(377,37)"/>
<path d="M0 0 C0.66 0.66 1.32 1.32 2 2 C1.34 2 0.68 2 0 2 C0 1.34 0 0.68 0 0 Z " fill="#000000" transform="translate(375,35)"/>
<path d="M0 0 C0.66 0.66 1.32 1.32 2 2 C1.34 2 0.68 2 0 2 C0 1.34 0 0.68 0 0 Z " fill="#000000" transform="translate(373,33)"/>
<path d="M0 0 C0.66 0.66 1.32 1.32 2 2 C1.34 2 0.68 2 0 2 C0 1.34 0 0.68 0 0 Z " fill="#000000" transform="translate(371,31)"/>
<path d="M0 0 C0.66 0.66 1.32 1.32 2 2 C1.34 2 0.68 2 0 2 C0 1.34 0 0.68 0 0 Z " fill="#000000" transform="translate(369,29)"/>
<path d="M0 0 C0.66 0.66 1.32 1.32 2 2 C1.34 2 0.68 2 0 2 C0 1.34 0 0.68 0 0 Z " fill="#000000" transform="translate(367,27)"/>
<path d="M0 0 C0.66 0.66 1.32 1.32 2 2 C1.34 2 0.68 2 0 2 C0 1.34 0 0.68 0 0 Z " fill="#000000" transform="translate(365,25)"/>
<path d="M0 0 C0.66 0.66 1.32 1.32 2 2 C1.34 2 0.68 2 0 2 C0 1.34 0 0.68 0 0 Z " fill="#000000" transform="translate(363,23)"/>
<path d="M0 0 C0.66 0.66 1.32 1.32 2 2 C1.34 2 0.68 2 0 2 C0 1.34 0 0.68 0 0 Z " fill="#000000" transform="translate(361,21)"/>
<path d="M0 0 C0.66 0.66 1.32 1.32 2 2 C1.34 2 0.68 2 0 2 C0 1.34 0 0.68 0 0 Z " fill="#000000" transform="translate(355,17)"/>
<path d="M0 0 C0.33 0.66 0.66 1.32 1 2 C0.34 1.67 -0.32 1.34 -1 1 C-0.67 0.67 -0.34 0.34 0 0 Z " fill="#000000" transform="translate(44,17)"/>
<path d="M0 0 C0.66 0.66 1.32 1.32 2 2 C1.34 2 0.68 2 0 2 C0 1.34 0 0.68 0 0 Z " fill="#000000" transform="translate(353,15)"/>
<path d="M0 0 C0.66 0.66 1.32 1.32 2 2 C1.34 2 0.68 2 0 2 C0 1.34 0 0.68 0 0 Z " fill="#000000" transform="translate(349,13)"/>
<path d="M0 0 C0.66 0.66 1.32 1.32 2 2 C1.34 2 0.68 2 0 2 C0 1.34 0 0.68 0 0 Z " fill="#000000" transform="translate(343,9)"/>
<path d="M0 0 C0.33 0.66 0.66 1.32 1 2 C0.34 1.67 -0.32 1.34 -1 1 C-0.67 0.67 -0.34 0.34 0 0 Z " fill="#000000" transform="translate(56,9)"/>
<path d="M0 0 C0.66 0.66 1.32 1.32 2 2 C1.34 2 0.68 2 0 2 C0 1.34 0 0.68 0 0 Z " fill="#000000" transform="translate(339,7)"/>
<path d="M0 0 C0.33 0.66 0.66 1.32 1 2 C0.34 1.67 -0.32 1.34 -1 1 C-0.67 0.67 -0.34 0.34 0 0 Z " fill="#000000" transform="translate(60,7)"/>
<path d="M0 0 C0.66 0.66 1.32 1.32 2 2 C1.34 2 0.68 2 0 2 C0 1.34 0 0.68 0 0 Z " fill="#000000" transform="translate(335,5)"/>
<path d="" fill="#000000" transform="translate(0,0)"/>
<path d="" fill="#000000" transform="translate(0,0)"/>
<path d="" fill="#000000" transform="translate(0,0)"/>
<path d="" fill="#000000" transform="translate(0,0)"/>
<path d="" fill="#000000" transform="translate(0,0)"/>
<path d="" fill="#000000" transform="translate(0,0)"/>
<path d="" fill="#000000" transform="translate(0,0)"/>
<path d="" fill="#000000" transform="translate(0,0)"/>
<path d="" fill="#000000" transform="translate(0,0)"/>
<path d="" fill="#000000" transform="translate(0,0)"/>
<path d="" fill="#000000" transform="translate(0,0)"/>
<path d="" fill="#000000" transform="translate(0,0)"/>
<path d="" fill="#000000" transform="translate(0,0)"/>
<path d="" fill="#000000" transform="translate(0,0)"/>
<path d="" fill="#000000" transform="translate(0,0)"/>
<path d="" fill="#000000" transform="translate(0,0)"/>
<path d="" fill="#000000" transform="translate(0,0)"/>
<path d="" fill="#000000" transform="translate(0,0)"/>
<path d="" fill="#000000" transform="translate(0,0)"/>
<path d="" fill="#000000" transform="translate(0,0)"/>
<path d="" fill="#000000" transform="translate(0,0)"/>
<path d="" fill="#000000" transform="translate(0,0)"/>
<path d="" fill="#000000" transform="translate(0,0)"/>
<path d="" fill="#000000" transform="translate(0,0)"/>
<path d="" fill="#000000" transform="translate(0,0)"/>
<path d="" fill="#000000" transform="translate(0,0)"/>
<path d="" fill="#000000" transform="translate(0,0)"/>
<path d="" fill="#000000" transform="translate(0,0)"/>
<path d="" fill="#000000" transform="translate(0,0)"/>
<path d="" fill="#000000" transform="translate(0,0)"/>
<path d="" fill="#000000" transform="translate(0,0)"/>
<path d="" fill="#000000" transform="translate(0,0)"/>
<path d="" fill="#000000" transform="translate(0,0)"/>
<path d="" fill="#000000" transform="translate(0,0)"/>
<path d="" fill="#000000" transform="translate(0,0)"/>
<path d="" fill="#000000" transform="translate(0,0)"/>
<path d="" fill="#000000" transform="translate(0,0)"/>
<path d="" fill="#000000" transform="translate(0,0)"/>
<path d="" fill="#000000" transform="translate(0,0)"/>
<path d="" fill="#000000" transform="translate(0,0)"/>
<path d="" fill="#000000" transform="translate(0,0)"/>
<path d="" fill="#000000" transform="translate(0,0)"/>
<path d="" fill="#000000" transform="translate(0,0)"/>
<path d="" fill="#000000" transform="translate(0,0)"/>
<path d="" fill="#000000" transform="translate(0,0)"/>
<path d="" fill="#000000" transform="translate(0,0)"/>
<path d="" fill="#000000" transform="translate(0,0)"/>
<path d="" fill="#000000" transform="translate(0,0)"/>
<path d="" fill="#000000" transform="translate(0,0)"/>
<path d="" fill="#000000" transform="translate(0,0)"/>
<path d="" fill="#000000" transform="translate(0,0)"/>
<path d="" fill="#000000" transform="translate(0,0)"/>
<path d="" fill="#000000" transform="translate(0,0)"/>
<path d="" fill="#000000" transform="translate(0,0)"/>
<path d="" fill="#000000" transform="translate(0,0)"/>
<path d="" fill="#000000" transform="translate(0,0)"/>
<path d="" fill="#000000" transform="translate(0,0)"/>
<path d="" fill="#000000" transform="translate(0,0)"/>
</svg>
